<svg width="40" height="42" viewBox="0 0 40 42" fill="none" xmlns="http://www.w3.org/2000/svg">
<mask id="path-1-outside-1_345_90494" maskUnits="userSpaceOnUse" x="5" y="0" width="30" height="42" fill="black">
<rect fill="white" x="5" width="30" height="42"/>
<path fill-rule="evenodd" clip-rule="evenodd" d="M23.0224 33.2955C23.5714 30.3214 25.8832 28.0624 28.315 26.2644C31.7638 23.7144 34 19.6183 34 15C34 7.26801 27.732 1 20 1C12.268 1 6 7.26801 6 15C6 19.7395 8.35516 23.929 11.959 26.4619C14.3005 28.1076 16.5331 30.1658 17.2172 32.9448L18.9218 39.8698C19.0852 40.5335 19.6804 41 20.3639 41C21.0802 41 21.6944 40.4888 21.8244 39.7845L23.0224 33.2955Z"/>
</mask>
<path fill-rule="evenodd" clip-rule="evenodd" d="M23.0224 33.2955C23.5714 30.3214 25.8832 28.0624 28.315 26.2644C31.7638 23.7144 34 19.6183 34 15C34 7.26801 27.732 1 20 1C12.268 1 6 7.26801 6 15C6 19.7395 8.35516 23.929 11.959 26.4619C14.3005 28.1076 16.5331 30.1658 17.2172 32.9448L18.9218 39.8698C19.0852 40.5335 19.6804 41 20.3639 41C21.0802 41 21.6944 40.4888 21.8244 39.7845L23.0224 33.2955Z" fill="#CF643F"/>
<path d="M17.2172 32.9448L16.2462 33.1838L17.2172 32.9448ZM21.8244 39.7845L20.841 39.6029L21.8244 39.7845ZM28.315 26.2644L27.7205 25.4603L28.315 26.2644ZM33 15C33 19.2878 30.9252 23.0907 27.7205 25.4603L28.9095 27.0684C32.6023 24.338 35 19.9489 35 15H33ZM20 2C27.1797 2 33 7.8203 33 15H35C35 6.71573 28.2843 0 20 0V2ZM7 15C7 7.8203 12.8203 2 20 2V0C11.7157 0 5 6.71573 5 15H7ZM12.534 25.6438C9.18517 23.2901 7 19.4002 7 15H5C5 20.0789 7.52515 24.5679 11.384 27.2801L12.534 25.6438ZM19.8928 39.6308L18.1882 32.7058L16.2462 33.1838L17.9508 40.1088L19.8928 39.6308ZM22.039 33.114L20.841 39.6029L22.8078 39.966L24.0057 33.4771L22.039 33.114ZM17.9508 40.1088C18.2242 41.2194 19.2202 42 20.3639 42V40C20.1406 40 19.9462 39.8476 19.8928 39.6308L17.9508 40.1088ZM11.384 27.2801C13.69 28.9008 15.6541 30.7785 16.2462 33.1838L18.1882 32.7058C17.4121 29.5531 14.911 27.3144 12.534 25.6438L11.384 27.2801ZM20.3639 42C21.5624 42 22.5902 41.1446 22.8078 39.966L20.841 39.6029C20.7985 39.833 20.5979 40 20.3639 40V42ZM27.7205 25.4603C25.2553 27.2831 22.6618 29.7402 22.039 33.114L24.0057 33.4771C24.481 30.9026 26.5112 28.8418 28.9095 27.0684L27.7205 25.4603Z" fill="white" mask="url(#path-1-outside-1_345_90494)"/>
<circle cx="20" cy="15" r="5" fill="#662E2C"/>
</svg>
