<svg xmlns="http://www.w3.org/2000/svg" width="480" height="240" fill="none">
  <path fill="#fff" d="M308.17 99.5739h114.127c-.546-2.012-3.55-8.9093-18.822-6.26 2.471-2.2013 4.107-5.596 3.426-8.8333-.204-.9734-.623-1.9227-1.33-2.6254-.634-.632-1.465-1.0306-2.31-1.3346-6.016-2.164-16.554 6.1306-16.554 6.1306 12.902-20.28-22.27-28.788-22.508-3.128 0 0-5.156-9.216-10.8-6.668-2.294 1.312-.877 5.2614.154 6.992-16.483-8.004-31.48-3.0933-24.495 6.04-16.195.34-20.888 9.6867-20.888 9.6867zM90.6406 50.9917h69.0504c-.332-1.2173-2.148-5.3907-11.388-3.7866 1.495-1.3321 2.486-3.3854 2.074-5.3454-.124-.588-.378-1.1627-.806-1.588-.384-.3827-.888-.6227-1.397-.808-3.64-1.3093-10.016 3.7093-10.016 3.7093 7.805-12.2706-13.475-17.4187-13.619-1.892 0 0-3.12-5.576-6.534-4.0346-1.388.7933-.531 3.184.093 4.2306-9.972-4.844-19.048-1.872-14.82 3.6547-9.7987.2053-12.6374 5.86-12.6374 5.86z"/>
  <path fill="#FAA84B" d="M301.722 26.524c0 6.916-5.606 12.524-12.524 12.524-6.916 0-12.522-5.608-12.522-12.524 0-6.9173 5.606-12.524 12.522-12.524 6.918 0 12.524 5.6067 12.524 12.524z"/>
  <path fill="#fff" d="M138.242 72.5327h-19.769v36.6253h19.769V72.5327z"/>
  <path fill="#90B2C5" d="M118.473 81.8101v3.5346l19.769-2.2653v-1.2693h-19.769z"/>
  <path fill="#092F53" d="M140.442 77.3545h-24.411v4.4187h24.411v-4.4187z"/>
  <path fill="#449EA2" d="M378.727 223.403h65.766c-.925-2.996-3.306-5.341-6.04-6.409-2.934-1.147-6.19-.973-9.205-.109.553-.159 1.299-1.155 1.687-1.578.928-1.01 1.674-2.073 1.888-3.465.236-1.556-.218-3.137-1.187-4.367-1.62-2.057-4.441-2.797-6.967-2.532-.125.014-.252.03-.378.05-.494.074-.979.197-1.444.378-2.023.79-3.811 2.172-5.34 3.694-.288.286-.574.578-.836.889 0 0 4.276-3.556 5.28-6.255 3.71-7.676-4.138-18.82-13.904-15.665-3.926 1.655-7.128 5.039-9.244 9.027 7.813-11.7-5.139-18.808-9.74-8.28 2.845-8.682-1.4-17.758-9.976-12.664-.127.045-.238.104-.36.152v47.134z"/>
  <path fill="#70BEB8" d="M378.728 223.401h38.745c-.544-1.766-1.948-3.147-3.557-3.776-1.729-.675-3.648-.574-5.424-.064.905-1.763-.331-4.139-2.065-4.826-1.735-.686-3.675-.116-5.344.742 1.44-.672 2.52-2.095 3.11-3.686 2.187-4.521-2.437-11.088-8.192-9.229-2.312.975-4.198 2.969-5.446 5.319 4.605-6.892-3.027-11.08-5.738-4.878 2.636-6.784-2.45-10.764-6.09-9.233l.001 29.631z"/>
  <path fill="#449EA2" d="M418.87 186.326c-1.04.936-2.546.811-2.546.811s.182-1.644 1.222-2.582c1.04-.937 2.545-.81 2.545-.81s-.181 1.644-1.221 2.581z"/>
  <path fill="#70BEB8" d="M389.093 197.168c-.774 1.397-2.444 1.818-2.444 1.818s-.413-1.841.362-3.236c.774-1.396 2.444-1.818 2.444-1.818s.413 1.841-.362 3.236z"/>
  <path fill="#449EA2" d="M415.802 182.599c.443 1.972-.591 3.948-.591 3.948s-1.752-1.223-2.194-3.195c-.443-1.972.589-3.947.589-3.947s1.753 1.222 2.196 3.194z"/>
  <path fill="#914F61" d="M65.2686 223.182l1.012-14.656-8.1107-9.392.4974-.401 4.7826 4.093.7-4.093.756.197-.132 5.103 1.948 1.893.7387-14.976-3.9693-4.916.4413-.378 4.112 3.288.2667-7.83h1.0706l.712 9.628 1.0387 9.568 5.3547-5.808.504.331-1.9534 3.076 3.4027-.048v.568l-3.7173.567-3.6534 5.725.8307 18.461h-6.632z"/>
  <path fill="#449EA2" d="M99.6906 170.174c.0653-1.827-.0707-3.708-.8387-5.367-.7667-1.659-2.2653-3.065-4.0733-3.324-1.0467-.151-2.216.143-2.86.98 2.04-2.536 3.9026-5.315 4.7066-8.469.804-3.154.4027-6.758-1.6946-9.246-2.02-2.393-5.3947-3.426-8.4934-2.972-3.1.456-5.9 2.267-7.9386 4.644.2213-4.896 1.3479-9.832.4506-14.649-.8946-4.82-4.724-9.643-9.62-9.427-3.32.148-6.1107 2.524-8.2267 5.086-4.3906 5.314-7.0986 11.998-7.644 18.87-1.2733-1.75-2.5693-3.525-4.272-4.861-1.7013-1.337-3.8933-2.205-6.028-1.856-3.5146.573-5.7506 4.151-6.6053 7.607-.9133 3.689-.7813 7.632.3773 11.252 1.9134 5.984 6.404 10.734 10.7587 15.262-2-.892-4.5227.311-5.4907 2.275-1.316 2.669-.0626 5.744 1.764 7.867 1.5374 1.786 3.5734 3.074 5.6787 4.132 11.7987 5.924 26.1587 5.069 38.064-.087 4.42-1.915 7.5054-5.08 9.856-9.313.008-.016.0174-.032.0267-.048 1.4027-2.536 1.9987-5.459 2.1027-8.356zM61.9281 195.05c-.552-.64-2.1787-.892-2.148.275-.4787-3.604-5.188-2.237-2.988 1.205-3.6187-3.76-6.8253 1.051-2.1427 3.195-3.98.08-1.7573 5.759 1.732 3.283-1.412.848-.512 2.71 1.0094 2.468 4.0506-.666 8.188-7.122 4.5373-10.426z"/>
  <path fill="#70BEB8" d="M54.7082 184.427c-.3267-.96-.5547-1.982-.4107-2.988.1427-1.004.7147-1.992 1.6347-2.418.5333-.247 1.2013-.278 1.6773.064-1.4893-1.023-2.924-2.203-3.8547-3.751-.9333-1.549-1.2946-3.529-.576-5.188.692-1.596 2.32-2.684 4.0414-2.937 1.7213-.254 3.5.262 4.964 1.201-.9-2.568-2.288-5.013-2.5814-7.719-.292-2.706.9734-5.882 3.6107-6.549 1.7893-.452 3.6547.365 5.1893 1.389 3.184 2.126 5.6894 5.247 7.0774 8.815.3986-1.135.804-2.285 1.496-3.268.6906-.983 1.7186-1.795 2.9093-1.949 1.9613-.258 3.7213 1.288 4.728 2.989 1.076 1.817 1.6347 3.935 1.5974 6.045-.0614 3.488-1.6907 6.731-3.2841 9.835.9214-.793 2.4547-.557 3.2827.333 1.1267 1.21.9507 3.044.32 4.464-.5333 1.196-1.4093 2.207-2.3613 3.106-5.3267 5.035-13.1 6.874-20.2547 6.034-2.6573-.313-4.804-1.502-6.7293-3.378a.3682.3682 0 0 1-.0227-.022c-1.1507-1.125-1.9347-2.584-2.4533-4.108z"/>
  <path fill="#449EA2" d="M41.4231 172.132c.6787 1.228.2747 2.748.2747 2.748s-1.5-.471-2.1774-1.699c-.6773-1.228-.2746-2.748-.2746-2.748s1.5.471 2.1773 1.699zM37.3987 174.712C39.324 174.6 40.972 176 40.972 176s-1.4733 1.584-3.3973 1.697c-1.9254.114-3.5747-1.286-3.5747-1.286s1.4733-1.586 3.3987-1.699zM79.7031 199.582c-.6907-.289-1.0254-1.058-1.0254-1.058s.784-.3 1.4747-.011c.6907.288 1.0253 1.059 1.0253 1.059s-.7826.3-1.4746.01zM80.3549 197.172c-.768.685-1.9213.645-1.9213.645s.0907-1.15.8587-1.836c.768-.685 1.9213-.645 1.9213-.645s-.0907 1.151-.8587 1.836z"/>
  <path fill="#70BEB8" d="M79.5194 156.835c-.98 1.004-2.5506 1.06-2.5506 1.06s.0133-1.572.9933-2.578c.9786-1.004 2.5507-1.058 2.5507-1.058s-.016 1.572-.9934 2.576zM55.6914 164.832c.9093.347 1.3773 1.333 1.3773 1.333s-1.0053.424-1.916.078c-.908-.348-1.3773-1.334-1.3773-1.334s1.0067-.424 1.916-.077zM75.877 153.724c.6667 1.81-.1973 3.792-.1973 3.792s-1.9427-.949-2.6094-2.76c-.6653-1.809.1974-3.793.1974-3.793s1.9426.951 2.6093 2.761zM59.5836 203.36c-.356.048-.7133.056-1.0386.015-.4854-.062-.9654-.271-1.2774-.648-.2613-.318-.4066-.826-.26-1.228.212-.586.9747-.446 1.3267-.887.1933-.241.1933-.581.1533-.887-.04-.306-.1133-.62-.0386-.92.0733-.3.36-.577.6613-.509.2293.052.3693.272.5187.431.092.098.212.184.3453.181.5707-.013.7067-.861 1.3013-.756.6227.109.976.764 1.148 1.312.304.964.1587 2.016-.504 2.801-.5906.702-1.4546.978-2.336 1.095z"/>
  <path fill="#092F53" d="M310.736 60.8323l-139.988-2.3987-81.0839 78.0144H389.326l-78.59-75.6157z"/>
  <path fill="#fff" d="M382.286 136.437h-90.962v81.365h90.962v-81.365z"/>
  <path fill="#4B8DF0" d="M382.323 136.437h-9.944v81.365h9.944v-81.365zM301.268 136.437h-9.944v81.365h9.944v-81.365z"/>
  <path fill="#D7E7E9" d="M372.407 148.216h-71.073v1h71.073v-1zM372.407 159.691h-71.073v1h71.073v-1zM372.407 171.166h-71.073v1h71.073v-1zM372.407 182.579h-71.073v1h71.073v-1zM372.407 194.054h-71.073v1h71.073v-1zM372.407 205.528h-71.073v1h71.073v-1z"/>
  <path fill="#3460B5" d="M301.268 148.216h-9.944v1h9.944v-1zM301.268 159.691h-9.944v1h9.944v-1zM301.268 171.166h-9.944v1h9.944v-1zM301.268 182.579h-9.944v1h9.944v-1zM301.268 194.054h-9.944v1h9.944v-1zM301.268 205.528h-9.944v1h9.944v-1zM382.323 148.216h-9.944v1h9.944v-1zM382.323 159.691h-9.944v1h9.944v-1zM382.323 171.166h-9.944v1h9.944v-1zM382.323 182.579h-9.944v1h9.944v-1zM382.323 194.054h-9.944v1h9.944v-1zM382.323 205.528h-9.944v1h9.944v-1z"/>
  <path fill="#fff" d="M187.46 136.437H96.5v81.365h90.96v-81.365z"/>
  <path fill="#D7E7E9" d="M186.685 148.216H96.5v1h90.185v-1zM186.685 159.691H96.5v1h90.185v-1zM186.685 171.166H96.5v1h90.185v-1zM186.685 182.579H96.5v1h90.185v-1zM186.685 194.054H96.5v1h90.185v-1zM186.685 205.528H96.5v1h90.185v-1z"/>
  <path fill="#4B8DF0" d="M172.016 153.16h-59.891v64.639h59.891V153.16z"/>
  <path fill="#3460B5" d="M172.016 156.001l-59.891 9.72V153.16h59.891v2.841z"/>
  <path fill="#90B2C5" d="M187.638 217.802h-3.98l2.487-81.365h1.493v81.365z"/>
  <path fill="#90B2C5" d="M187.46 137.781l-90.96 4.97v-6.314h90.96v1.344zM301.334 136.437v5.77l71.073-3.884v-1.886h-71.073z"/>
  <path fill="#3460B5" d="M372.379 136.437v1.886l9.944-.542v-1.344h-9.944zM291.324 136.437v6.314l9.944-.544v-5.77h-9.944z"/>
  <path fill="#fff" d="M291.441 217.831H187.564V91.3322l51.939-40.528 51.938 40.528V217.831z"/>
  <path fill="#90B2C5" d="M239.503 50.8042l-51.939 40.528V100.5l49.519-38.2811 54.358 42.4161V91.3322l-51.938-40.528z"/>
  <path fill="#fff" d="M299.6 92.3658l-60.188-45.1627-60.148 45.616 5.864 5.8627 54.284-42.3587 54.053 42.1787 6.135-6.136z"/>
  <path fill="#708BBE" d="M385.259 217.796H90.6406v5.579H385.259v-5.579z"/>
  <path fill="#fff" d="M162.119 167.137h-39.984v50.642h39.984v-50.642z"/>
  <path fill="#092F53" d="M140.66 169.457h-15.596v45.505h15.596v-45.505zM159.215 169.457h-15.596v45.505h15.596v-45.505z"/>
  <path fill="#3460B5" d="M162.035 166.466h-40.873l-.492 51.348h1.381v-50.642h39.984v-.706z"/>
  <path fill="#fff" d="M365.314 167.137H308.17v34.419h57.144v-34.419z"/>
  <path fill="#092F53" d="M320.469 169.457h-9.614v29.405h9.614v-29.405zM350.7 169.457h-27.393v29.405H350.7v-29.405zM362.949 169.457h-9.613v29.405h9.613v-29.405z"/>
  <path fill="#90B2C5" d="M365.394 166.71h-57.99l-.699 34.861h1.545v-34.418h57.144v-.443z"/>
  <path fill="#90B2C5" d="M306.705 201.317h58.689v.815l-58.689 2.485v-3.3z"/>
  <path fill="#092F53" d="M219.518 169.457h-15.596v45.505h15.596v-45.505zM238.074 169.457h-15.597v45.505h15.597v-45.505zM256.627 169.457h-15.596v45.505h15.596v-45.505zM274.938 169.457h-15.596v45.505h15.596v-45.505z"/>
  <path fill="#90B2C5" d="M276.754 166.71h-76.528l-1.187 51.084h2.401v-50.641h75.314v-.443z"/>
  <path fill="#092F53" d="M238.074 92.125h-15.597v45.505h15.597V92.125zM256.627 92.125h-15.596v45.505h15.596V92.125z"/>
  <path fill="#90B2C5" d="M258.97 89.3784h-40.19l-1.186 51.0836h2.402V89.8198h38.974v-.4414z"/>
  <path fill="#092F53" d="M280.256 140.099h-81.705v4.197h81.705v-4.197z"/>
  <path fill="#90B2C5" d="M280.462 144.296h-81.705v-4.197l-3.136 4.197v3.949l84.841-3.02v-.929z"/>
  <path fill="#708BBE" d="M203.538 128.685h-1.325v11.44h1.325v-11.44zM247.726 128.685h-1.324v11.44h1.324v-11.44zM233.079 128.685h-1.325v11.44h1.325v-11.44zM262.62 128.685h-1.325v11.44h1.325v-11.44zM218.187 128.685h-1.326v11.44h1.326v-11.44zM277.269 128.685h-1.326v11.44h1.326v-11.44z"/>
  <path fill="#48938B" d="M203.538 128.685h-1.325v1.076h1.325v-1.076zM247.726 128.685h-1.324v1.076h1.324v-1.076zM233.079 128.685h-1.325v1.076h1.325v-1.076zM262.62 128.685h-1.325v1.076h1.325v-1.076zM218.187 128.685h-1.326v1.076h1.326v-1.076zM277.269 128.685h-1.326v1.076h1.326v-1.076z"/>
  <path fill="#708BBE" d="M278.62 128.655h-78.116v-2.9l78.116.674v2.226z"/>
  <path fill="#A9C5D2" d="M94.5474 211.815H49.1367v1.756h45.4107v-1.756zM94.5474 218.956H49.1367v1.756h45.4107v-1.756z"/>
  <path fill="#fff" d="M53.7814 223.211h-3.08c-.1906 0-.344-.144-.344-.321v-13.169c0-.072.024-.142.0707-.198l1.5413-1.856c.1374-.166.4054-.166.5427 0l1.54 1.856a.3103.3103 0 0 1 .0733.198v13.169c0 .177-.1533.321-.344.321zM60.3732 223.211h-3.0813c-.1893 0-.3427-.144-.3427-.321v-13.169c0-.072.024-.142.072-.198l1.54-1.856c.1374-.166.4054-.166.5427 0l1.54 1.856a.3103.3103 0 0 1 .0733.198v13.169c0 .177-.1546.321-.344.321zM66.7222 223.211h-3.0813c-.1894 0-.344-.144-.344-.321v-13.169c0-.072.0266-.142.0733-.198l1.54-1.856c.1373-.166.4053-.166.5427 0l1.54 1.856a.302.302 0 0 1 .072.198v13.169c0 .177-.1534.321-.3427.321zM73.0685 223.211h-3.08c-.1906 0-.344-.144-.344-.321v-13.169c0-.072.0267-.142.0734-.198l1.54-1.856c.1373-.166.4053-.166.5426 0l1.5414 1.856a.3082.3082 0 0 1 .0706.198v13.169c0 .177-.1533.321-.344.321zM79.6617 223.211h-3.0814c-.1906 0-.344-.144-.344-.321v-13.169c0-.072.0267-.142.0734-.198l1.54-1.856c.1373-.166.4053-.166.5413 0l1.5413 1.856a.309.309 0 0 1 .072.198v13.169c0 .177-.1533.321-.3426.321zM86.0093 223.211H82.928c-.1894 0-.344-.144-.344-.321v-13.169a.309.309 0 0 1 .072-.198l1.54-1.856c.1387-.166.4066-.166.544 0l1.54 1.856a.3103.3103 0 0 1 .0733.198v13.169c0 .177-.1546.321-.344.321zM92.357 223.211h-3.0827c-.188 0-.3427-.144-.3427-.321v-13.169c0-.072.0254-.142.072-.198l1.54-1.856c.1387-.166.4054-.166.5441 0l1.54 1.856c.0466.056.072.126.072.198v13.169c0 .177-.1547.321-.3427.321z"/>
  <path fill="#A9C5D2" d="M439.926 211.815h-64.373v1.756h64.373v-1.756zM439.926 218.956h-64.373v1.756h64.373v-1.756z"/>
  <path fill="#fff" d="M380.443 223.211h-3.083c-.189 0-.342-.144-.342-.321v-13.169c0-.072.025-.142.072-.198l1.54-1.856c.138-.166.405-.166.542 0l1.542 1.856c.046.056.07.126.07.198v13.169c0 .177-.153.321-.341.321zM386.791 223.211h-3.082c-.189 0-.344-.144-.344-.321v-13.169c0-.072.027-.142.074-.198l1.54-1.856c.138-.166.405-.166.544 0l1.54 1.856a.313.313 0 0 1 .072.198v13.169c0 .177-.155.321-.344.321zM393.138 223.211h-3.081c-.189 0-.344-.144-.344-.321v-13.169c0-.072.027-.142.073-.198l1.54-1.856c.138-.166.406-.166.543 0l1.541 1.856c.047.056.072.126.072.198v13.169c0 .177-.154.321-.344.321zM399.729 223.211h-3.082c-.189 0-.342-.144-.342-.321v-13.169c0-.072.024-.142.07-.198l1.543-1.856c.136-.166.404-.166.541 0l1.54 1.856c.047.056.074.126.074.198v13.169c0 .177-.154.321-.344.321zM406.076 223.211h-3.08c-.19 0-.344-.144-.344-.321v-13.169c0-.072.024-.142.071-.198l1.541-1.856c.138-.166.404-.166.543 0l1.54 1.856c.047.056.073.126.073.198v13.169c0 .177-.154.321-.344.321zM412.424 223.211h-3.081c-.19 0-.343-.144-.343-.321v-13.169c0-.072.024-.142.072-.198l1.54-1.856c.137-.166.405-.166.543 0l1.54 1.856a.302.302 0 0 1 .072.198v13.169c0 .177-.154.321-.343.321zM419.016 223.211h-3.08c-.191 0-.344-.144-.344-.321v-13.169c0-.072.026-.142.073-.198l1.54-1.856c.137-.166.405-.166.543 0l1.54 1.856a.302.302 0 0 1 .072.198v13.169c0 .177-.154.321-.344.321zM425.363 223.211h-3.08c-.19 0-.344-.144-.344-.321v-13.169c0-.072.027-.142.074-.198l1.54-1.856c.137-.166.405-.166.541 0l1.543 1.856c.046.056.07.126.07.198v13.169c0 .177-.153.321-.344.321zM431.957 223.211h-3.082c-.19 0-.344-.144-.344-.321v-13.169c0-.072.026-.142.072-.198l1.542-1.856c.137-.166.405-.166.541 0l1.541 1.856c.047.056.072.126.072.198v13.169c0 .177-.153.321-.342.321zM438.304 223.211h-3.082c-.188 0-.343-.144-.343-.321v-13.169c0-.072.025-.142.072-.198l1.54-1.856c.139-.166.405-.166.544 0l1.54 1.856c.047.056.073.126.073.198v13.169c0 .177-.156.321-.344.321z"/>
  <path fill="#092F53" d="M446.074 222.74H44.7422v1.334H446.074v-1.334z"/>
</svg>
