<svg width="1600" height="800" viewBox="0 0 1600 800" fill="none" xmlns="http://www.w3.org/2000/svg">
<rect width="1600" height="800" fill="white"/>
<path fill-rule="evenodd" clip-rule="evenodd" d="M75.8552 350.592H136.703L148.47 362.008H202.894L214.269 350.592H275.587L286.961 362.008H341.386L353.153 350.592H414.001L425.767 362.008H480.231L491.998 350.592H552.845L564.613 362.008H619.038L630.412 350.592H691.731L703.105 362.008H757.88L769.254 350.592H830.573L841.947 362.008H896.372L908.14 350.592H968.987L980.754 362.008H1035.22L1046.98 350.592H1107.83L1108.98 351.703L1109.03 351.75L1119.6 362.008H1174.02L1185.4 350.592H1246.71L1258.09 362.008H1312.87L1324.24 350.592H1385.56L1396.94 362.008H1451.36L1463.12 350.592H1522.38V358.465H1466.32L1454.55 369.881H1393.7L1392.56 368.77L1392.51 368.723L1381.94 358.465H1327.51L1316.14 369.881H1254.82L1243.45 358.465H1188.67L1177.29 369.881H1115.97L1104.6 358.465H1050.18L1038.41 369.881H977.561L965.794 358.465H911.333L899.565 369.881H838.715L837.573 368.77L837.522 368.723L826.951 358.465H772.526L761.152 369.881H699.833L688.459 358.465H633.679L622.305 369.881H560.987L549.613 358.465H495.191L483.424 369.881H422.575L410.808 358.465H356.345L344.578 369.881H283.691L272.317 358.465H217.539L206.165 369.881H144.846L133.472 358.465H79.0475L68.4265 368.77L62.9432 363.119L75.8552 350.592Z" fill="black"/>
<path fill-rule="evenodd" clip-rule="evenodd" d="M492.882 315.162V354.528H490.882V315.162H492.882Z" fill="black"/>
<path fill-rule="evenodd" clip-rule="evenodd" d="M552.937 315.162V354.528H550.937V315.162H552.937Z" fill="black"/>
<path fill-rule="evenodd" clip-rule="evenodd" d="M970.26 315.162V354.528H968.26V315.162H970.26Z" fill="black"/>
<path fill-rule="evenodd" clip-rule="evenodd" d="M1048 315.162V354.528H1046V315.162H1048Z" fill="black"/>
<path fill-rule="evenodd" clip-rule="evenodd" d="M870.835 369.641V408.641H868.835V369.641H870.835Z" fill="black"/>
<path fill-rule="evenodd" clip-rule="evenodd" d="M1008.63 369.641V408.641H1006.63V369.641H1008.63Z" fill="black"/>
<path fill-rule="evenodd" clip-rule="evenodd" d="M562.748 369.275V408.641H560.748V369.275H562.748Z" fill="black"/>
<path fill-rule="evenodd" clip-rule="evenodd" d="M622.866 369.275V408.641H620.866V369.275H622.866Z" fill="black"/>
<path fill-rule="evenodd" clip-rule="evenodd" d="M608.992 404.768H573.559V402.768H608.992V404.768Z" fill="black"/>
<path d="M605.118 397.831L620.866 403.736L605.118 409.641V397.831Z" fill="black"/>
<path d="M578.433 397.831L562.685 403.736L578.433 409.641V397.831Z" fill="black"/>
<path fill-rule="evenodd" clip-rule="evenodd" d="M994.819 404.768H880.646V402.768H994.819V404.768Z" fill="black"/>
<path d="M990.882 397.831L1006.63 403.736L990.882 409.641V397.831Z" fill="black"/>
<path d="M886.52 397.831L870.772 403.736L886.52 409.641V397.831Z" fill="black"/>
<path fill-rule="evenodd" clip-rule="evenodd" d="M105.118 358.465V484.438H103.118V358.465H105.118Z" fill="black"/>
<path fill-rule="evenodd" clip-rule="evenodd" d="M65.685 281.669V364.338H63.685V281.669H65.685Z" fill="black"/>
<path fill-rule="evenodd" clip-rule="evenodd" d="M1492.88 358.465V484.438H1490.88V358.465H1492.88Z" fill="black"/>
<path fill-rule="evenodd" clip-rule="evenodd" d="M1521.44 275.795V358.465H1519.44V275.795H1521.44Z" fill="black"/>
<path fill-rule="evenodd" clip-rule="evenodd" d="M1479.14 479.564H113V477.564H1479.14V479.564Z" fill="black"/>
<path d="M1475.13 472.628L1490.88 478.533L1475.13 484.438V472.628Z" fill="black"/>
<path d="M120.803 472.628L105.055 478.533L120.803 484.438V472.628Z" fill="black"/>
<path fill-rule="evenodd" clip-rule="evenodd" d="M1504.2 290.605H79V288.605H1504.2V290.605Z" fill="black"/>
<path d="M1503.69 283.669L1519.44 289.574L1503.69 295.478V283.669Z" fill="black"/>
<path d="M81.3701 283.669L65.622 289.574L81.3701 295.478V283.669Z" fill="black"/>
<path fill-rule="evenodd" clip-rule="evenodd" d="M538.126 322.098H502.693V320.098H538.126V322.098Z" fill="black"/>
<path d="M535.189 315.162L550.937 321.067L535.189 326.972V315.162Z" fill="black"/>
<path d="M508.567 315.162L492.819 321.067L508.567 326.972V315.162Z" fill="black"/>
<path fill-rule="evenodd" clip-rule="evenodd" d="M1034.19 322.098H979.071V320.098H1034.19V322.098Z" fill="black"/>
<path d="M1030.25 315.162L1046 321.067L1030.25 326.972V315.162Z" fill="black"/>
<path d="M986.945 315.162L971.197 321.067L986.945 326.972V315.162Z" fill="black"/>
<path fill-rule="evenodd" clip-rule="evenodd" d="M1537.19 382.085V401.768H1535.19V382.085H1537.19Z" fill="black"/>
<path d="M1530.25 386.021L1536.16 370.275L1542.06 386.021H1530.25Z" fill="black"/>
<path fill-rule="evenodd" clip-rule="evenodd" d="M1537.19 338.782V319.098H1535.19V338.782H1537.19Z" fill="black"/>
<path d="M1530.25 334.845L1536.16 350.592L1542.06 334.845H1530.25Z" fill="black"/>
<path fill-rule="evenodd" clip-rule="evenodd" d="M1542.06 352.592H1467.26V350.592H1542.06V352.592Z" fill="black"/>
<path fill-rule="evenodd" clip-rule="evenodd" d="M1542.06 370.112H1427.89V368.112H1542.06V370.112Z" fill="black"/>
<path d="M752.752 255.312L748.336 256.848L748.888 258.768L752.464 257.712V272.112H754.672V255.312H752.752Z" fill="black"/>
<path d="M757.419 272.112H768.267V269.952H760.659L764.955 265.68C766.611 264.024 767.955 262.224 767.955 260.136C767.955 256.824 765.339 255 762.723 255C760.539 255 758.499 256.08 757.419 258.312L759.291 259.416C760.011 257.904 761.211 257.16 762.747 257.16C764.307 257.16 765.723 258.192 765.723 260.16C765.723 261.576 764.667 262.92 763.347 264.24L757.419 270.288V272.112Z" fill="black"/>
<path d="M776.537 272.424C780.713 272.424 783.017 268.896 783.017 263.712C783.017 258.528 780.713 255 776.537 255C772.385 255 770.057 258.528 770.057 263.712C770.057 268.896 772.385 272.424 776.537 272.424ZM776.537 270.24C773.825 270.24 772.289 267.888 772.289 263.712C772.289 259.536 773.825 257.16 776.537 257.16C779.249 257.16 780.809 259.536 780.809 263.712C780.809 267.888 779.249 270.24 776.537 270.24Z" fill="black"/>
<path d="M791.654 272.424C795.83 272.424 798.134 268.896 798.134 263.712C798.134 258.528 795.83 255 791.654 255C787.502 255 785.174 258.528 785.174 263.712C785.174 268.896 787.502 272.424 791.654 272.424ZM791.654 270.24C788.942 270.24 787.406 267.888 787.406 263.712C787.406 259.536 788.942 257.16 791.654 257.16C794.366 257.16 795.926 259.536 795.926 263.712C795.926 267.888 794.366 270.24 791.654 270.24Z" fill="black"/>
<path d="M818.795 260.112H816.563L812.795 266.184L809.027 260.112H806.795V272.112H808.859V263.4L812.675 269.544H812.939L816.755 263.4V272.112H818.795V260.112Z" fill="black"/>
<path d="M833.982 260.112H831.75L827.982 266.184L824.214 260.112H821.982V272.112H824.046V263.4L827.862 269.544H828.126L831.942 263.4V272.112H833.982V260.112Z" fill="black"/>
<path fill-rule="evenodd" clip-rule="evenodd" d="M316.5 419.112C327.822 419.112 337 409.934 337 398.612C337 387.29 327.822 378.112 316.5 378.112C305.178 378.112 296 387.29 296 398.612C296 409.934 305.178 419.112 316.5 419.112ZM316.5 421.112C328.926 421.112 339 411.038 339 398.612C339 386.186 328.926 376.112 316.5 376.112C304.074 376.112 294 386.186 294 398.612C294 411.038 304.074 421.112 316.5 421.112Z" fill="black"/>
<path d="M320.517 397.4C321.621 396.632 322.341 395.408 322.341 393.896C322.341 391.304 320.253 389.312 317.637 389.312H310.917V406.112H318.165C320.877 406.112 323.037 404.048 323.037 401.36C323.037 399.536 322.029 398.12 320.517 397.4ZM317.637 391.4C319.029 391.4 320.133 392.552 320.133 393.968C320.133 395.408 319.029 396.536 317.637 396.536H313.149V391.4H317.637ZM318.165 404.024H313.149V398.576H318.165C319.653 398.576 320.829 399.776 320.829 401.288C320.829 402.824 319.653 404.024 318.165 404.024Z" fill="black"/>
<path fill-rule="evenodd" clip-rule="evenodd" d="M104.5 656.112C115.822 656.112 125 646.934 125 635.612C125 624.29 115.822 615.112 104.5 615.112C93.1781 615.112 84 624.29 84 635.612C84 646.934 93.1781 656.112 104.5 656.112ZM104.5 658.112C116.926 658.112 127 648.038 127 635.612C127 623.186 116.926 613.112 104.5 613.112C92.0736 613.112 82 623.186 82 635.612C82 648.038 92.0736 658.112 104.5 658.112Z" fill="black"/>
<path d="M108.517 634.4C109.621 633.632 110.341 632.408 110.341 630.896C110.341 628.304 108.253 626.312 105.637 626.312H98.9172V643.112H106.165C108.877 643.112 111.037 641.048 111.037 638.36C111.037 636.536 110.029 635.12 108.517 634.4ZM105.637 628.4C107.029 628.4 108.133 629.552 108.133 630.968C108.133 632.408 107.029 633.536 105.637 633.536H101.149V628.4H105.637ZM106.165 641.024H101.149V635.576H106.165C107.653 635.576 108.829 636.776 108.829 638.288C108.829 639.824 107.653 641.024 106.165 641.024Z" fill="black"/>
<path fill-rule="evenodd" clip-rule="evenodd" d="M245.5 342.112C256.822 342.112 266 332.934 266 321.612C266 310.29 256.822 301.112 245.5 301.112C234.178 301.112 225 310.29 225 321.612C225 332.934 234.178 342.112 245.5 342.112ZM245.5 344.112C257.926 344.112 268 334.038 268 321.612C268 309.186 257.926 299.112 245.5 299.112C233.074 299.112 223 309.186 223 321.612C223 334.038 233.074 344.112 245.5 344.112Z" fill="black"/>
<path d="M250.153 329.112H252.529L246.265 312.312H243.745L237.481 329.112H239.857L241.225 325.344H248.785L250.153 329.112ZM241.993 323.256L244.993 314.976L248.017 323.256H241.993Z" fill="black"/>
<path fill-rule="evenodd" clip-rule="evenodd" d="M104.5 595.112C115.822 595.112 125 585.934 125 574.612C125 563.29 115.822 554.112 104.5 554.112C93.1781 554.112 84 563.29 84 574.612C84 585.934 93.1781 595.112 104.5 595.112ZM104.5 597.112C116.926 597.112 127 587.038 127 574.612C127 562.186 116.926 552.112 104.5 552.112C92.0736 552.112 82 562.186 82 574.612C82 587.038 92.0736 597.112 104.5 597.112Z" fill="black"/>
<path d="M109.153 582.112H111.529L105.265 565.312H102.745L96.481 582.112H98.857L100.225 578.344H107.785L109.153 582.112ZM100.993 576.256L103.993 567.976L107.017 576.256H100.993Z" fill="black"/>
<path d="M755.752 495.312L751.336 496.848L751.888 498.768L755.464 497.712V512.112H757.672V495.312H755.752Z" fill="black"/>
<path d="M764.307 495.312L759.891 496.848L760.443 498.768L764.019 497.712V512.112H766.227V495.312H764.307Z" fill="black"/>
<path d="M774.589 501.864H772.141L772.429 497.4H779.605V495.312H770.413L769.789 504.024H774.541C776.533 504.024 778.045 505.128 778.045 507.144C778.045 509.136 776.533 510.24 774.493 510.24C772.669 510.24 771.301 509.4 770.845 507.744L768.949 508.824C769.765 511.224 772.021 512.424 774.493 512.424C777.517 512.424 780.253 510.552 780.253 507.144C780.253 503.712 777.589 501.864 774.589 501.864Z" fill="black"/>
<path d="M788.49 512.424C792.666 512.424 794.97 508.896 794.97 503.712C794.97 498.528 792.666 495 788.49 495C784.338 495 782.01 498.528 782.01 503.712C782.01 508.896 784.338 512.424 788.49 512.424ZM788.49 510.24C785.778 510.24 784.242 507.888 784.242 503.712C784.242 499.536 785.778 497.16 788.49 497.16C791.202 497.16 792.762 499.536 792.762 503.712C792.762 507.888 791.202 510.24 788.49 510.24Z" fill="black"/>
<path d="M815.631 500.112H813.399L809.631 506.184L805.863 500.112H803.631V512.112H805.695V503.4L809.511 509.544H809.775L813.591 503.4V512.112H815.631V500.112Z" fill="black"/>
<path d="M830.818 500.112H828.586L824.818 506.184L821.05 500.112H818.818V512.112H820.882V503.4L824.698 509.544H824.962L828.778 503.4V512.112H830.818V500.112Z" fill="black"/>
<path d="M1533.31 451.32C1532.54 450.096 1531.3 449.256 1529.64 449.256C1526.42 449.256 1524.89 451.8 1524.89 454.464C1524.89 457.104 1526.42 459.648 1529.64 459.648C1531.3 459.648 1532.54 458.808 1533.31 457.584C1534.13 459.192 1535.57 460.2 1537.39 460.2C1540.54 460.2 1542.31 457.728 1542.31 454.464C1542.31 451.176 1540.54 448.704 1537.39 448.704C1535.57 448.704 1534.13 449.712 1533.31 451.32ZM1527.02 454.464C1527.02 452.88 1527.82 451.488 1529.69 451.488C1531.46 451.488 1532.38 452.88 1532.38 454.464C1532.38 456.024 1531.46 457.44 1529.69 457.44C1527.82 457.44 1527.02 456.024 1527.02 454.464ZM1540.18 454.464C1540.18 456.504 1539.19 457.992 1537.25 457.992C1535.33 457.992 1534.34 456.504 1534.34 454.464C1534.34 452.4 1535.33 450.912 1537.25 450.912C1539.19 450.912 1540.18 452.4 1540.18 454.464Z" fill="black"/>
<path d="M1530 428.216V430.448L1536.07 434.216L1530 437.984V440.216H1542V438.152H1533.29L1539.43 434.336V434.072L1533.29 430.256H1542V428.216H1530Z" fill="black"/>
<path d="M1530 413.028V415.26L1536.07 419.028L1530 422.796V425.028H1542V422.964H1533.29L1539.43 419.148V418.884L1533.29 415.068H1542V413.028H1530Z" fill="black"/>
<path d="M567.48 319.864H565.032L565.32 315.4H572.496V313.312H563.304L562.68 322.024H567.432C569.424 322.024 570.936 323.128 570.936 325.144C570.936 327.136 569.424 328.24 567.384 328.24C565.56 328.24 564.192 327.4 563.736 325.744L561.84 326.824C562.656 329.224 564.912 330.424 567.384 330.424C570.408 330.424 573.144 328.552 573.144 325.144C573.144 321.712 570.48 319.864 567.48 319.864Z" fill="black"/>
<path d="M574.473 330.112H585.321V327.952H577.713L582.009 323.68C583.665 322.024 585.009 320.224 585.009 318.136C585.009 314.824 582.393 313 579.777 313C577.593 313 575.553 314.08 574.473 316.312L576.345 317.416C577.065 315.904 578.265 315.16 579.801 315.16C581.361 315.16 582.777 316.192 582.777 318.16C582.777 319.576 581.721 320.92 580.401 322.24L574.473 328.288V330.112Z" fill="black"/>
<path d="M590.97 327.64H588.57L587.61 333.472H589.41L590.97 327.64Z" fill="black"/>
<path d="M598.816 319.864H596.368L596.656 315.4H603.832V313.312H594.64L594.016 322.024H598.768C600.76 322.024 602.272 323.128 602.272 325.144C602.272 327.136 600.76 328.24 598.72 328.24C596.896 328.24 595.528 327.4 595.072 325.744L593.176 326.824C593.992 329.224 596.248 330.424 598.72 330.424C601.744 330.424 604.48 328.552 604.48 325.144C604.48 321.712 601.816 319.864 598.816 319.864Z" fill="black"/>
<path d="M624.951 318.112H622.719L618.951 324.184L615.183 318.112H612.951V330.112H615.015V321.4L618.831 327.544H619.095L622.911 321.4V330.112H624.951V318.112Z" fill="black"/>
<path d="M640.139 318.112H637.907L634.139 324.184L630.371 318.112H628.139V330.112H630.203V321.4L634.019 327.544H634.283L638.099 321.4V330.112H640.139V318.112Z" fill="black"/>
<path d="M1064.46 319.12C1064.19 319.12 1063.93 319.144 1063.66 319.168L1067.62 313.312H1065.08L1059.68 321.4C1059.03 322.312 1058.67 323.464 1058.67 324.76C1058.67 328.096 1061.07 330.424 1064.46 330.424C1067.82 330.424 1070.24 328.096 1070.24 324.76C1070.24 321.424 1067.82 319.12 1064.46 319.12ZM1064.46 328.288C1062.34 328.288 1060.88 326.896 1060.88 324.76C1060.88 322.624 1062.34 321.256 1064.46 321.256C1066.54 321.256 1068.03 322.648 1068.03 324.76C1068.03 326.896 1066.54 328.288 1064.46 328.288Z" fill="black"/>
<path d="M1071.43 330.112H1082.27V327.952H1074.67L1078.96 323.68C1080.62 322.024 1081.96 320.224 1081.96 318.136C1081.96 314.824 1079.35 313 1076.73 313C1074.55 313 1072.51 314.08 1071.43 316.312L1073.3 317.416C1074.02 315.904 1075.22 315.16 1076.75 315.16C1078.31 315.16 1079.73 316.192 1079.73 318.16C1079.73 319.576 1078.67 320.92 1077.35 322.24L1071.43 328.288V330.112Z" fill="black"/>
<path d="M1087.92 327.64H1085.52L1084.56 333.472H1086.36L1087.92 327.64Z" fill="black"/>
<path d="M1095.77 319.864H1093.32L1093.61 315.4H1100.79V313.312H1091.59L1090.97 322.024H1095.72C1097.71 322.024 1099.22 323.128 1099.22 325.144C1099.22 327.136 1097.71 328.24 1095.67 328.24C1093.85 328.24 1092.48 327.4 1092.03 325.744L1090.13 326.824C1090.95 329.224 1093.2 330.424 1095.67 330.424C1098.7 330.424 1101.43 328.552 1101.43 325.144C1101.43 321.712 1098.77 319.864 1095.77 319.864Z" fill="black"/>
<path d="M1121.9 318.112H1119.67L1115.9 324.184L1112.14 318.112H1109.9V330.112H1111.97V321.4L1115.78 327.544H1116.05L1119.86 321.4V330.112H1121.9V318.112Z" fill="black"/>
<path d="M1137.09 318.112H1134.86L1131.09 324.184L1127.32 318.112H1125.09V330.112H1127.16V321.4L1130.97 327.544H1131.24L1135.05 321.4V330.112H1137.09V318.112Z" fill="black"/>
<path d="M634.48 399.864H632.032L632.32 395.4H639.496V393.312H630.304L629.68 402.024H634.432C636.424 402.024 637.936 403.128 637.936 405.144C637.936 407.136 636.424 408.24 634.384 408.24C632.56 408.24 631.192 407.4 630.736 405.744L628.84 406.824C629.656 409.224 631.912 410.424 634.384 410.424C637.408 410.424 640.144 408.552 640.144 405.144C640.144 401.712 637.48 399.864 634.48 399.864Z" fill="black"/>
<path d="M641.473 410.112H652.321V407.952H644.713L649.009 403.68C650.665 402.024 652.009 400.224 652.009 398.136C652.009 394.824 649.393 393 646.777 393C644.593 393 642.553 394.08 641.473 396.312L643.345 397.416C644.065 395.904 645.265 395.16 646.801 395.16C648.361 395.16 649.777 396.192 649.777 398.16C649.777 399.576 648.721 400.92 647.401 402.24L641.473 408.288V410.112Z" fill="black"/>
<path d="M657.97 407.64H655.57L654.61 413.472H656.41L657.97 407.64Z" fill="black"/>
<path d="M665.816 399.864H663.368L663.656 395.4H670.832V393.312H661.64L661.016 402.024H665.768C667.76 402.024 669.272 403.128 669.272 405.144C669.272 407.136 667.76 408.24 665.72 408.24C663.896 408.24 662.528 407.4 662.072 405.744L660.176 406.824C660.992 409.224 663.248 410.424 665.72 410.424C668.744 410.424 671.48 408.552 671.48 405.144C671.48 401.712 668.816 399.864 665.816 399.864Z" fill="black"/>
<path d="M691.951 398.112H689.719L685.951 404.184L682.183 398.112H679.951V410.112H682.015V401.4L685.831 407.544H686.095L689.911 401.4V410.112H691.951V398.112Z" fill="black"/>
<path d="M707.139 398.112H704.907L701.139 404.184L697.371 398.112H695.139V410.112H697.203V401.4L701.019 407.544H701.283L705.099 401.4V410.112H707.139V398.112Z" fill="black"/>
<path d="M1022.75 393.312L1018.34 394.848L1018.89 396.768L1022.46 395.712V410.112H1024.67V393.312H1022.75Z" fill="black"/>
<path d="M1031.31 393.312L1026.89 394.848L1027.44 396.768L1031.02 395.712V410.112H1033.23V393.312H1031.31Z" fill="black"/>
<path d="M1041.59 399.864H1039.14L1039.43 395.4H1046.61V393.312H1037.41L1036.79 402.024H1041.54C1043.53 402.024 1045.05 403.128 1045.05 405.144C1045.05 407.136 1043.53 408.24 1041.49 408.24C1039.67 408.24 1038.3 407.4 1037.85 405.744L1035.95 406.824C1036.77 409.224 1039.02 410.424 1041.49 410.424C1044.52 410.424 1047.25 408.552 1047.25 405.144C1047.25 401.712 1044.59 399.864 1041.59 399.864Z" fill="black"/>
<path d="M1067.72 398.112H1065.49L1061.72 404.184L1057.96 398.112H1055.72V410.112H1057.79V401.4L1061.6 407.544H1061.87L1065.68 401.4V410.112H1067.72V398.112Z" fill="black"/>
<path d="M1082.91 398.112H1080.68L1076.91 404.184L1073.14 398.112H1070.91V410.112H1072.98V401.4L1076.79 407.544H1077.06L1080.87 401.4V410.112H1082.91V398.112Z" fill="black"/>
<path d="M139.723 582.112C142.843 582.4 145.267 581.032 145.267 574.84V567.424H151.891V582.112H154.123V565.312H143.035V574.84C143.035 579.28 141.811 580.384 139.723 580.096V582.112Z" fill="black"/>
<path d="M166.23 570.112L159.582 578.536V570.112H157.518V582.112H159.198L165.846 573.688V582.112H167.91V570.112H166.23Z" fill="black"/>
<path d="M181.168 580.12V570.112H179.08V580.12H173.176V570.112H171.088V582.112H181.072V585.328H183.136V580.12H181.168Z" fill="black"/>
<path d="M186.357 577.072H196.413C196.461 576.76 196.485 576.448 196.485 576.136C196.485 572.776 194.133 569.8 190.509 569.8C186.765 569.8 184.221 572.56 184.221 576.112C184.221 579.712 186.789 582.424 190.653 582.424C193.053 582.424 194.877 581.344 195.933 579.712L194.157 578.704C193.557 579.688 192.357 580.456 190.701 580.456C188.469 580.456 186.765 579.232 186.357 577.072ZM190.509 571.768C192.309 571.768 194.013 572.872 194.373 575.248H186.357C186.693 573.16 188.253 571.768 190.509 571.768Z" fill="black"/>
<path d="M206.877 575.944C207.741 575.392 208.173 574.504 208.173 573.376C208.173 571.504 206.877 570.112 204.405 570.112H198.885V582.112H204.885C207.453 582.112 208.725 580.624 208.725 578.728C208.725 577.432 208.077 576.448 206.877 575.944ZM204.309 571.984C205.509 571.984 206.133 572.56 206.133 573.52C206.133 574.576 205.509 575.128 204.309 575.128H200.925V571.984H204.309ZM204.765 580.216H200.925V576.976H204.765C205.989 576.976 206.661 577.576 206.661 578.56C206.661 579.592 206.013 580.216 204.765 580.216Z" fill="black"/>
<path d="M220.915 570.112V572.176C219.955 570.712 218.419 569.8 216.379 569.8C213.043 569.8 210.307 572.56 210.307 576.112C210.307 579.664 213.043 582.424 216.379 582.424C218.419 582.424 219.955 581.512 220.915 580.048V582.112H223.003V570.112H220.915ZM216.643 580.408C214.243 580.408 212.395 578.56 212.395 576.112C212.395 573.664 214.243 571.816 216.643 571.816C219.067 571.816 220.915 573.664 220.915 576.112C220.915 578.56 219.067 580.408 216.643 580.408Z" fill="black"/>
<path d="M235.142 570.112H230.03C227.654 570.112 225.902 571.792 225.902 573.976C225.902 575.8 227.15 577.24 228.926 577.672L225.422 582.112H227.966L231.326 577.792H233.078V582.112H235.142V570.112ZM230.102 575.92C228.95 575.92 227.966 575.2 227.966 574C227.966 572.776 228.95 572.056 230.102 572.056H233.078V575.92H230.102Z" fill="black"/>
<path d="M249.947 582.424C252.299 582.424 254.339 581.176 255.347 579.304L253.571 578.272C252.899 579.52 251.579 580.36 249.947 580.36C247.547 580.36 245.723 578.512 245.723 576.112C245.723 573.688 247.547 571.84 249.947 571.84C251.555 571.84 252.899 572.68 253.499 573.952L255.251 572.944C254.339 571.048 252.323 569.8 249.947 569.8C246.323 569.8 243.635 572.56 243.635 576.112C243.635 579.664 246.323 582.424 249.947 582.424Z" fill="black"/>
<path d="M266.149 570.112H255.877V572.128H259.981V582.112H262.069V572.128H266.149V570.112Z" fill="black"/>
<path d="M273.15 582.424C276.654 582.424 279.486 579.664 279.486 576.112C279.486 572.56 276.654 569.8 273.15 569.8C269.646 569.8 266.838 572.56 266.838 576.112C266.838 579.664 269.646 582.424 273.15 582.424ZM273.15 580.384C270.774 580.384 268.926 578.536 268.926 576.112C268.926 573.688 270.774 571.84 273.15 571.84C275.55 571.84 277.398 573.688 277.398 576.112C277.398 578.536 275.55 580.384 273.15 580.384Z" fill="black"/>
<path d="M288.571 569.8C286.531 569.8 284.995 570.712 284.035 572.176V570.112H281.947V586.912H284.035V580.048C284.995 581.512 286.531 582.424 288.571 582.424C291.907 582.424 294.643 579.664 294.643 576.112C294.643 572.56 291.907 569.8 288.571 569.8ZM288.307 580.408C285.883 580.408 284.035 578.56 284.035 576.112C284.035 573.664 285.883 571.816 288.307 571.816C290.707 571.816 292.555 573.664 292.555 576.112C292.555 578.56 290.707 580.408 288.307 580.408Z" fill="black"/>
<path d="M302.775 582.424C306.279 582.424 309.111 579.664 309.111 576.112C309.111 572.56 306.279 569.8 302.775 569.8C299.271 569.8 296.463 572.56 296.463 576.112C296.463 579.664 299.271 582.424 302.775 582.424ZM302.775 580.384C300.399 580.384 298.551 578.536 298.551 576.112C298.551 573.688 300.399 571.84 302.775 571.84C305.175 571.84 307.023 573.688 307.023 576.112C307.023 578.536 305.175 580.384 302.775 580.384Z" fill="black"/>
<path d="M319.876 570.112V575.104H313.66V570.112H311.572V582.112H313.66V577.096H319.876V582.112H321.964V570.112H319.876Z" fill="black"/>
<path d="M335.079 570.112V572.176C334.119 570.712 332.583 569.8 330.543 569.8C327.207 569.8 324.471 572.56 324.471 576.112C324.471 579.664 327.207 582.424 330.543 582.424C332.583 582.424 334.119 581.512 335.079 580.048V582.112H337.167V570.112H335.079ZM330.807 580.408C328.407 580.408 326.559 578.56 326.559 576.112C326.559 573.664 328.407 571.816 330.807 571.816C333.231 571.816 335.079 573.664 335.079 576.112C335.079 578.56 333.231 580.408 330.807 580.408Z" fill="black"/>
<path d="M351.97 582.424C355.474 582.424 358.306 579.664 358.306 576.112C358.306 572.56 355.474 569.8 351.97 569.8C348.466 569.8 345.658 572.56 345.658 576.112C345.658 579.664 348.466 582.424 351.97 582.424ZM351.97 580.384C349.594 580.384 347.746 578.536 347.746 576.112C347.746 573.688 349.594 571.84 351.97 571.84C354.37 571.84 356.218 573.688 356.218 576.112C356.218 578.536 354.37 580.384 351.97 580.384Z" fill="black"/>
<path d="M370.92 582.112L364.992 575.92L370.728 570.112H368.04L362.856 575.416V570.112H360.768V582.112H362.856V576.424L368.328 582.112H370.92Z" fill="black"/>
<path d="M379.485 569.8C377.445 569.8 375.909 570.712 374.949 572.176V570.112H372.861V586.912H374.949V580.048C375.909 581.512 377.445 582.424 379.485 582.424C382.821 582.424 385.557 579.664 385.557 576.112C385.557 572.56 382.821 569.8 379.485 569.8ZM379.221 580.408C376.797 580.408 374.949 578.56 374.949 576.112C374.949 573.664 376.797 571.816 379.221 571.816C381.621 571.816 383.469 573.664 383.469 576.112C383.469 578.56 381.621 580.408 379.221 580.408Z" fill="black"/>
<path d="M397.985 570.112V572.176C397.025 570.712 395.489 569.8 393.449 569.8C390.113 569.8 387.377 572.56 387.377 576.112C387.377 579.664 390.113 582.424 393.449 582.424C395.489 582.424 397.025 581.512 397.985 580.048V582.112H400.073V570.112H397.985ZM393.713 580.408C391.313 580.408 389.465 578.56 389.465 576.112C389.465 573.664 391.313 571.816 393.713 571.816C396.137 571.816 397.985 573.664 397.985 576.112C397.985 578.56 396.137 580.408 393.713 580.408Z" fill="black"/>
<path d="M408.876 582.424C411.228 582.424 413.268 581.176 414.276 579.304L412.5 578.272C411.828 579.52 410.508 580.36 408.876 580.36C406.476 580.36 404.652 578.512 404.652 576.112C404.652 573.688 406.476 571.84 408.876 571.84C410.484 571.84 411.828 572.68 412.428 573.952L414.18 572.944C413.268 571.048 411.252 569.8 408.876 569.8C405.252 569.8 402.564 572.56 402.564 576.112C402.564 579.664 405.252 582.424 408.876 582.424Z" fill="black"/>
<path d="M426.513 582.112L420.585 575.92L426.321 570.112H423.633L418.449 575.416V570.112H416.361V582.112H418.449V576.424L423.921 582.112H426.513Z" fill="black"/>
<path d="M437.167 570.112L430.519 578.536V570.112H428.455V582.112H430.135L436.783 573.688V582.112H438.847V570.112H437.167Z" fill="black"/>
<path d="M458.417 570.112H448.025V582.112H450.113V572.104H456.329V582.112H458.417V570.112Z" fill="black"/>
<path d="M467.236 582.424C470.74 582.424 473.572 579.664 473.572 576.112C473.572 572.56 470.74 569.8 467.236 569.8C463.732 569.8 460.924 572.56 460.924 576.112C460.924 579.664 463.732 582.424 467.236 582.424ZM467.236 580.384C464.86 580.384 463.012 578.536 463.012 576.112C463.012 573.688 464.86 571.84 467.236 571.84C469.636 571.84 471.484 573.688 471.484 576.112C471.484 578.536 469.636 580.384 467.236 580.384Z" fill="black"/>
<path d="M490.409 570.112L486.953 579.52L482.849 570.112H480.641L485.849 582.136L485.657 582.568C485.033 584.128 484.025 585.088 482.417 584.968V586.912C484.817 587.08 486.737 585.544 487.745 582.856L492.641 570.112H490.409Z" fill="black"/>
<path d="M506.385 570.112H504.153L500.385 576.184L496.617 570.112H494.385V582.112H496.449V573.4L500.265 579.544H500.529L504.345 573.4V582.112H506.385V570.112Z" fill="black"/>
<path d="M515.212 582.424C518.716 582.424 521.548 579.664 521.548 576.112C521.548 572.56 518.716 569.8 515.212 569.8C511.708 569.8 508.9 572.56 508.9 576.112C508.9 579.664 511.708 582.424 515.212 582.424ZM515.212 580.384C512.836 580.384 510.988 578.536 510.988 576.112C510.988 573.688 512.836 571.84 515.212 571.84C517.612 571.84 519.46 573.688 519.46 576.112C519.46 578.536 517.612 580.384 515.212 580.384Z" fill="black"/>
<path d="M533.596 570.112H524.692V576.976C524.692 579.64 523.804 580.36 522.244 580.144V582.112C524.932 582.352 526.78 581.152 526.78 577.024V572.128H531.508V582.112H533.596V570.112Z" fill="black"/>
<path d="M544.32 570.112V575.848C543.408 576.256 542.328 576.472 541.224 576.472C539.424 576.472 538.344 575.824 538.344 573.976V570.112H536.256V574.096C536.256 577 538.08 578.416 541.08 578.416C542.256 578.416 543.384 578.2 544.32 577.792V582.112H546.408V570.112H544.32Z" fill="black"/>
<path d="M559.516 570.112V572.176C558.556 570.712 557.02 569.8 554.98 569.8C551.644 569.8 548.908 572.56 548.908 576.112C548.908 579.664 551.644 582.424 554.98 582.424C557.02 582.424 558.556 581.512 559.516 580.048V582.112H561.604V570.112H559.516ZM555.244 580.408C552.844 580.408 550.996 578.56 550.996 576.112C550.996 573.664 552.844 571.816 555.244 571.816C557.668 571.816 559.516 573.664 559.516 576.112C559.516 578.56 557.668 580.408 555.244 580.408Z" fill="black"/>
<path d="M573.072 570.112V575.104H566.856V570.112H564.768V582.112H566.856V577.096H573.072V582.112H575.16V570.112H573.072Z" fill="black"/>
<path d="M587.05 570.112L580.402 578.536V570.112H578.338V582.112H580.018L586.666 573.688V582.112H588.73V570.112H587.05Z" fill="black"/>
<path d="M602.396 569.8C599.228 569.8 596.684 572.056 596.228 575.104H593.996V570.112H591.908V582.112H593.996V577.096H596.228C596.684 580.168 599.228 582.424 602.396 582.424C605.9 582.424 608.708 579.664 608.708 576.112C608.708 572.56 605.9 569.8 602.396 569.8ZM602.396 580.384C599.996 580.384 598.148 578.536 598.148 576.112C598.148 573.688 599.996 571.84 602.396 571.84C604.772 571.84 606.62 573.688 606.62 576.112C606.62 578.536 604.772 580.384 602.396 580.384Z" fill="black"/>
<path d="M151.903 641.112H154.279L148.015 624.312H145.495L139.231 641.112H141.607L142.975 637.344H150.535L151.903 641.112ZM143.743 635.256L146.743 626.976L149.767 635.256H143.743Z" fill="black"/>
<path d="M166.123 629.112H157.219V635.976C157.219 638.64 156.331 639.36 154.771 639.144V641.112C157.459 641.352 159.307 640.152 159.307 636.024V631.128H164.035V641.112H166.123V629.112Z" fill="black"/>
<path d="M174.351 633.432H171.375V629.112H169.287V641.112H174.351C176.727 641.112 178.527 639.552 178.527 637.272C178.527 634.992 176.727 633.432 174.351 633.432ZM174.351 639.168H171.375V635.352H174.351C175.503 635.352 176.463 636.096 176.463 637.272C176.463 638.448 175.503 639.168 174.351 639.168Z" fill="black"/>
<path d="M188.317 629.112H178.045V631.128H182.149V641.112H184.237V631.128H188.317V629.112Z" fill="black"/>
<path d="M191.142 636.072H201.198C201.246 635.76 201.27 635.448 201.27 635.136C201.27 631.776 198.918 628.8 195.294 628.8C191.55 628.8 189.006 631.56 189.006 635.112C189.006 638.712 191.574 641.424 195.438 641.424C197.838 641.424 199.662 640.344 200.718 638.712L198.942 637.704C198.342 638.688 197.142 639.456 195.486 639.456C193.254 639.456 191.55 638.232 191.142 636.072ZM195.294 630.768C197.094 630.768 198.798 631.872 199.158 634.248H191.142C191.478 632.16 193.038 630.768 195.294 630.768Z" fill="black"/>
<path d="M210.294 628.8C208.254 628.8 206.718 629.712 205.758 631.176V629.112H203.67V645.912H205.758V639.048C206.718 640.512 208.254 641.424 210.294 641.424C213.63 641.424 216.366 638.664 216.366 635.112C216.366 631.56 213.63 628.8 210.294 628.8ZM210.03 639.408C207.606 639.408 205.758 637.56 205.758 635.112C205.758 632.664 207.606 630.816 210.03 630.816C212.43 630.816 214.278 632.664 214.278 635.112C214.278 637.56 212.43 639.408 210.03 639.408Z" fill="black"/>
<path d="M227.161 629.112V634.104H220.945V629.112H218.857V641.112H220.945V636.096H227.161V641.112H229.249V629.112H227.161Z" fill="black"/>
<path d="M242.364 629.112V631.176C241.404 629.712 239.868 628.8 237.828 628.8C234.492 628.8 231.756 631.56 231.756 635.112C231.756 638.664 234.492 641.424 237.828 641.424C239.868 641.424 241.404 640.512 242.364 639.048V641.112H244.452V629.112H242.364ZM238.092 639.408C235.692 639.408 233.844 637.56 233.844 635.112C233.844 632.664 235.692 630.816 238.092 630.816C240.516 630.816 242.364 632.664 242.364 635.112C242.364 637.56 240.516 639.408 238.092 639.408Z" fill="black"/>
<path d="M256.543 629.112H246.271V631.128H250.375V641.112H252.463V631.128H256.543V629.112Z" fill="black"/>
<path d="M267.085 629.112L260.437 637.536V629.112H258.373V641.112H260.053L266.701 632.688V641.112H268.765V629.112H267.085Z" fill="black"/>
<path d="M279.935 634.944C280.799 634.392 281.231 633.504 281.231 632.376C281.231 630.504 279.935 629.112 277.463 629.112H271.943V641.112H277.943C280.511 641.112 281.783 639.624 281.783 637.728C281.783 636.432 281.135 635.448 279.935 634.944ZM277.367 630.984C278.567 630.984 279.191 631.56 279.191 632.52C279.191 633.576 278.567 634.128 277.367 634.128H273.983V630.984H277.367ZM277.823 639.216H273.983V635.976H277.823C279.047 635.976 279.719 636.576 279.719 637.56C279.719 638.592 279.071 639.216 277.823 639.216Z" fill="black"/>
<path d="M292.341 629.112V634.104H286.125V629.112H284.037V641.112H286.125V636.096H292.341V641.112H294.429V629.112H292.341Z" fill="black"/>
<path d="M307.543 629.112V631.176C306.583 629.712 305.047 628.8 303.007 628.8C299.671 628.8 296.935 631.56 296.935 635.112C296.935 638.664 299.671 641.424 303.007 641.424C305.047 641.424 306.583 640.512 307.543 639.048V641.112H309.631V629.112H307.543ZM303.271 639.408C300.871 639.408 299.023 637.56 299.023 635.112C299.023 632.664 300.871 630.816 303.271 630.816C305.695 630.816 307.543 632.664 307.543 635.112C307.543 637.56 305.695 639.408 303.271 639.408Z" fill="black"/>
<path d="M321.771 629.112H316.659C314.283 629.112 312.531 630.792 312.531 632.976C312.531 634.8 313.779 636.24 315.555 636.672L312.051 641.112H314.595L317.955 636.792H319.707V641.112H321.771V629.112ZM316.731 634.92C315.579 634.92 314.595 634.2 314.595 633C314.595 631.776 315.579 631.056 316.731 631.056H319.707V634.92H316.731Z" fill="black"/>
<path d="M340.944 629.112H332.04V635.976C332.04 638.64 331.152 639.36 329.592 639.144V641.112C332.28 641.352 334.128 640.152 334.128 636.024V631.128H338.856V641.112H340.944V629.112Z" fill="black"/>
<path d="M352.819 629.112L346.171 637.536V629.112H344.107V641.112H345.787L352.435 632.688V641.112H354.499V629.112H352.819Z" fill="black"/>
<path d="M367.758 639.12V629.112H365.67V639.12H359.766V629.112H357.678V641.112H367.662V644.328H369.726V639.12H367.758Z" fill="black"/>
<path d="M372.946 636.072H383.002C383.05 635.76 383.074 635.448 383.074 635.136C383.074 631.776 380.722 628.8 377.098 628.8C373.354 628.8 370.81 631.56 370.81 635.112C370.81 638.712 373.378 641.424 377.242 641.424C379.642 641.424 381.466 640.344 382.522 638.712L380.746 637.704C380.146 638.688 378.946 639.456 377.29 639.456C375.058 639.456 373.354 638.232 372.946 636.072ZM377.098 630.768C378.898 630.768 380.602 631.872 380.962 634.248H372.946C373.282 632.16 374.842 630.768 377.098 630.768Z" fill="black"/>
<path d="M393.467 634.944C394.331 634.392 394.763 633.504 394.763 632.376C394.763 630.504 393.467 629.112 390.995 629.112H385.475V641.112H391.475C394.043 641.112 395.315 639.624 395.315 637.728C395.315 636.432 394.667 635.448 393.467 634.944ZM390.899 630.984C392.099 630.984 392.723 631.56 392.723 632.52C392.723 633.576 392.099 634.128 390.899 634.128H387.515V630.984H390.899ZM391.355 639.216H387.515V635.976H391.355C392.579 635.976 393.251 636.576 393.251 637.56C393.251 638.592 392.603 639.216 391.355 639.216Z" fill="black"/>
<path d="M407.504 629.112V631.176C406.544 629.712 405.008 628.8 402.968 628.8C399.632 628.8 396.896 631.56 396.896 635.112C396.896 638.664 399.632 641.424 402.968 641.424C405.008 641.424 406.544 640.512 407.504 639.048V641.112H409.592V629.112H407.504ZM403.232 639.408C400.832 639.408 398.984 637.56 398.984 635.112C398.984 632.664 400.832 630.816 403.232 630.816C405.656 630.816 407.504 632.664 407.504 635.112C407.504 637.56 405.656 639.408 403.232 639.408Z" fill="black"/>
<path d="M421.732 629.112H416.62C414.244 629.112 412.492 630.792 412.492 632.976C412.492 634.8 413.74 636.24 415.516 636.672L412.012 641.112H414.556L417.916 636.792H419.668V641.112H421.732V629.112ZM416.692 634.92C415.54 634.92 414.556 634.2 414.556 633C414.556 631.776 415.54 631.056 416.692 631.056H419.668V634.92H416.692Z" fill="black"/>
<path d="M436.536 641.424C438.888 641.424 440.928 640.176 441.936 638.304L440.16 637.272C439.488 638.52 438.168 639.36 436.536 639.36C434.136 639.36 432.312 637.512 432.312 635.112C432.312 632.688 434.136 630.84 436.536 630.84C438.144 630.84 439.489 631.68 440.089 632.952L441.841 631.944C440.929 630.048 438.912 628.8 436.536 628.8C432.912 628.8 430.224 631.56 430.224 635.112C430.224 638.664 432.912 641.424 436.536 641.424Z" fill="black"/>
<path d="M452.739 629.112H442.467V631.128H446.571V641.112H448.659V631.128H452.739V629.112Z" fill="black"/>
<path d="M459.74 641.424C463.244 641.424 466.076 638.664 466.076 635.112C466.076 631.56 463.244 628.8 459.74 628.8C456.236 628.8 453.428 631.56 453.428 635.112C453.428 638.664 456.236 641.424 459.74 641.424ZM459.74 639.384C457.364 639.384 455.516 637.536 455.516 635.112C455.516 632.688 457.364 630.84 459.74 630.84C462.14 630.84 463.988 632.688 463.988 635.112C463.988 637.536 462.14 639.384 459.74 639.384Z" fill="black"/>
<path d="M475.161 628.8C473.121 628.8 471.585 629.712 470.625 631.176V629.112H468.537V645.912H470.625V639.048C471.585 640.512 473.121 641.424 475.161 641.424C478.497 641.424 481.233 638.664 481.233 635.112C481.233 631.56 478.497 628.8 475.161 628.8ZM474.897 639.408C472.473 639.408 470.625 637.56 470.625 635.112C470.625 632.664 472.473 630.816 474.897 630.816C477.297 630.816 479.145 632.664 479.145 635.112C479.145 637.56 477.297 639.408 474.897 639.408Z" fill="black"/>
<path d="M489.365 641.424C492.869 641.424 495.701 638.664 495.701 635.112C495.701 631.56 492.869 628.8 489.365 628.8C485.861 628.8 483.053 631.56 483.053 635.112C483.053 638.664 485.861 641.424 489.365 641.424ZM489.365 639.384C486.989 639.384 485.141 637.536 485.141 635.112C485.141 632.688 486.989 630.84 489.365 630.84C491.765 630.84 493.613 632.688 493.613 635.112C493.613 637.536 491.765 639.384 489.365 639.384Z" fill="black"/>
<path d="M506.466 629.112V634.104H500.25V629.112H498.162V641.112H500.25V636.096H506.466V641.112H508.554V629.112H506.466Z" fill="black"/>
<path d="M521.668 629.112V631.176C520.708 629.712 519.172 628.8 517.132 628.8C513.796 628.8 511.06 631.56 511.06 635.112C511.06 638.664 513.796 641.424 517.132 641.424C519.172 641.424 520.708 640.512 521.668 639.048V641.112H523.756V629.112H521.668ZM517.396 639.408C514.996 639.408 513.148 637.56 513.148 635.112C513.148 632.664 514.996 630.816 517.396 630.816C519.82 630.816 521.668 632.664 521.668 635.112C521.668 637.56 519.82 639.408 517.396 639.408Z" fill="black"/>
<path d="M535.368 643.512H537.456C535.776 640.152 534.816 636.552 534.816 632.712C534.816 628.872 535.776 625.272 537.456 621.912H535.368C533.688 625.272 532.728 628.872 532.728 632.712C532.728 636.552 533.688 640.152 535.368 643.512Z" fill="black"/>
<path d="M545.286 641.424C548.79 641.424 551.622 638.664 551.622 635.112C551.622 631.56 548.79 628.8 545.286 628.8C541.782 628.8 538.974 631.56 538.974 635.112C538.974 638.664 541.782 641.424 545.286 641.424ZM545.286 639.384C542.91 639.384 541.062 637.536 541.062 635.112C541.062 632.688 542.91 630.84 545.286 630.84C547.686 630.84 549.534 632.688 549.534 635.112C549.534 637.536 547.686 639.384 545.286 639.384Z" fill="black"/>
<path d="M561.956 629.112H554.084V641.112H556.172V631.128H561.956V629.112Z" fill="black"/>
<path d="M568.958 641.424C572.462 641.424 575.294 638.664 575.294 635.112C575.294 631.56 572.462 628.8 568.958 628.8C565.454 628.8 562.646 631.56 562.646 635.112C562.646 638.664 565.454 641.424 568.958 641.424ZM568.958 639.384C566.582 639.384 564.734 637.536 564.734 635.112C564.734 632.688 566.582 630.84 568.958 630.84C571.358 630.84 573.206 632.688 573.206 635.112C573.206 637.536 571.358 639.384 568.958 639.384Z" fill="black"/>
<path d="M585.748 634.944C586.612 634.392 587.044 633.504 587.044 632.376C587.044 630.504 585.748 629.112 583.276 629.112H577.756V641.112H583.756C586.324 641.112 587.596 639.624 587.596 637.728C587.596 636.432 586.948 635.448 585.748 634.944ZM583.18 630.984C584.38 630.984 585.004 631.56 585.004 632.52C585.004 633.576 584.38 634.128 583.18 634.128H579.796V630.984H583.18ZM583.636 639.216H579.796V635.976H583.636C584.86 635.976 585.532 636.576 585.532 637.56C585.532 638.592 584.884 639.216 583.636 639.216Z" fill="black"/>
<path d="M599.786 629.112V631.176C598.826 629.712 597.29 628.8 595.25 628.8C591.914 628.8 589.178 631.56 589.178 635.112C589.178 638.664 591.914 641.424 595.25 641.424C597.29 641.424 598.826 640.512 599.786 639.048V641.112H601.874V629.112H599.786ZM595.514 639.408C593.114 639.408 591.266 637.56 591.266 635.112C591.266 632.664 593.114 630.816 595.514 630.816C597.938 630.816 599.786 632.664 599.786 635.112C599.786 637.56 597.938 639.408 595.514 639.408Z" fill="black"/>
<path d="M611.661 628.8C609.621 628.8 608.085 629.712 607.125 631.176V629.112H605.037V645.912H607.125V639.048C608.085 640.512 609.621 641.424 611.661 641.424C614.997 641.424 617.733 638.664 617.733 635.112C617.733 631.56 614.997 628.8 611.661 628.8ZM611.397 639.408C608.973 639.408 607.125 637.56 607.125 635.112C607.125 632.664 608.973 630.816 611.397 630.816C613.797 630.816 615.645 632.664 615.645 635.112C615.645 637.56 613.797 639.408 611.397 639.408Z" fill="black"/>
<path d="M628.937 629.112L622.289 637.536V629.112H620.225V641.112H621.905L628.553 632.688V641.112H630.617V629.112H628.937Z" fill="black"/>
<path d="M641.787 634.944C642.651 634.392 643.083 633.504 643.083 632.376C643.083 630.504 641.787 629.112 639.315 629.112H633.795V641.112H639.795C642.363 641.112 643.635 639.624 643.635 637.728C643.635 636.432 642.987 635.448 641.787 634.944ZM639.219 630.984C640.419 630.984 641.043 631.56 641.043 632.52C641.043 633.576 640.419 634.128 639.219 634.128H635.835V630.984H639.219ZM639.675 639.216H635.835V635.976H639.675C640.899 635.976 641.571 636.576 641.571 637.56C641.571 638.592 640.923 639.216 639.675 639.216Z" fill="black"/>
<path d="M655.825 629.112V631.176C654.865 629.712 653.329 628.8 651.289 628.8C647.953 628.8 645.217 631.56 645.217 635.112C645.217 638.664 647.953 641.424 651.289 641.424C653.329 641.424 654.865 640.512 655.825 639.048V641.112H657.913V629.112H655.825ZM651.553 639.408C649.153 639.408 647.305 637.56 647.305 635.112C647.305 632.664 649.153 630.816 651.553 630.816C653.977 630.816 655.825 632.664 655.825 635.112C655.825 637.56 653.977 639.408 651.553 639.408Z" fill="black"/>
<path d="M662.54 636.072H672.596C672.644 635.76 672.668 635.448 672.668 635.136C672.668 631.776 670.316 628.8 666.692 628.8C662.948 628.8 660.404 631.56 660.404 635.112C660.404 638.712 662.972 641.424 666.836 641.424C669.236 641.424 671.06 640.344 672.116 638.712L670.34 637.704C669.74 638.688 668.54 639.456 666.884 639.456C664.652 639.456 662.948 638.232 662.54 636.072ZM666.692 630.768C668.492 630.768 670.196 631.872 670.556 634.248H662.54C662.876 632.16 664.436 630.768 666.692 630.768Z" fill="black"/>
<path d="M683.528 629.112H673.256V631.128H677.36V641.112H679.448V631.128H683.528V629.112Z" fill="black"/>
<path d="M690.529 641.424C692.881 641.424 694.921 640.176 695.929 638.304L694.153 637.272C693.481 638.52 692.161 639.36 690.529 639.36C688.129 639.36 686.305 637.512 686.305 635.112C686.305 632.688 688.129 630.84 690.529 630.84C692.137 630.84 693.481 631.68 694.081 632.952L695.833 631.944C694.921 630.048 692.905 628.8 690.529 628.8C686.905 628.8 684.217 631.56 684.217 635.112C684.217 638.664 686.905 641.424 690.529 641.424Z" fill="black"/>
<path d="M706.732 629.112H701.62C699.244 629.112 697.492 630.792 697.492 632.976C697.492 634.8 698.74 636.24 700.516 636.672L697.012 641.112H699.556L702.916 636.792H704.668V641.112H706.732V629.112ZM701.692 634.92C700.54 634.92 699.556 634.2 699.556 633C699.556 631.776 700.54 631.056 701.692 631.056H704.668V634.92H701.692Z" fill="black"/>
<path d="M721.536 641.424C725.04 641.424 727.872 638.664 727.872 635.112C727.872 631.56 725.04 628.8 721.536 628.8C718.032 628.8 715.224 631.56 715.224 635.112C715.224 638.664 718.032 641.424 721.536 641.424ZM721.536 639.384C719.16 639.384 717.312 637.536 717.312 635.112C717.312 632.688 719.16 630.84 721.536 630.84C723.936 630.84 725.784 632.688 725.784 635.112C725.784 637.536 723.936 639.384 721.536 639.384Z" fill="black"/>
<path d="M738.793 629.112H728.521V631.128H732.625V641.112H734.713V631.128H738.793V629.112Z" fill="black"/>
<path d="M750.193 639.12V629.112H741.337V634.68C741.337 636.96 740.905 638.136 740.185 639.12H738.721V644.328H740.785V641.112H749.785V644.328H751.849V639.12H750.193ZM742.561 639.12C743.113 637.968 743.401 636.6 743.401 634.68V631.056H748.129V639.12H742.561Z" fill="black"/>
<path d="M755.095 636.072H765.151C765.199 635.76 765.223 635.448 765.223 635.136C765.223 631.776 762.871 628.8 759.247 628.8C755.503 628.8 752.959 631.56 752.959 635.112C752.959 638.712 755.527 641.424 759.391 641.424C761.791 641.424 763.615 640.344 764.671 638.712L762.895 637.704C762.295 638.688 761.095 639.456 759.439 639.456C757.207 639.456 755.503 638.232 755.095 636.072ZM759.247 630.768C761.047 630.768 762.751 631.872 763.111 634.248H755.095C755.431 632.16 756.991 630.768 759.247 630.768Z" fill="black"/>
<path d="M777.162 629.112H768.258V635.976C768.258 638.64 767.37 639.36 765.81 639.144V641.112C768.498 641.352 770.346 640.152 770.346 636.024V631.128H775.074V641.112H777.162V629.112Z" fill="black"/>
<path d="M785.39 633.432H782.414V629.112H780.326V641.112H785.39C787.766 641.112 789.566 639.552 789.566 637.272C789.566 634.992 787.766 633.432 785.39 633.432ZM785.39 639.168H782.414V635.352H785.39C786.542 635.352 787.502 636.096 787.502 637.272C787.502 638.448 786.542 639.168 785.39 639.168Z" fill="black"/>
<path d="M800.115 629.112V634.104H793.898V629.112H791.81V641.112H793.898V636.096H800.115V641.112H802.203V629.112H800.115Z" fill="black"/>
<path d="M811.021 641.424C814.525 641.424 817.357 638.664 817.357 635.112C817.357 631.56 814.525 628.8 811.021 628.8C807.517 628.8 804.709 631.56 804.709 635.112C804.709 638.664 807.517 641.424 811.021 641.424ZM811.021 639.384C808.645 639.384 806.797 637.536 806.797 635.112C806.797 632.688 808.645 630.84 811.021 630.84C813.421 630.84 815.269 632.688 815.269 635.112C815.269 637.536 813.421 639.384 811.021 639.384Z" fill="black"/>
<path d="M820.922 643.512C822.602 640.152 823.562 636.552 823.562 632.712C823.562 628.872 822.602 625.272 820.922 621.912H818.834C820.514 625.272 821.474 628.872 821.474 632.712C821.474 636.552 820.514 640.152 818.834 643.512H820.922Z" fill="black"/>
</svg>
