<svg width="100" height="100" viewBox="0 0 100 100" fill="none" xmlns="http://www.w3.org/2000/svg">
<path d="M79.6998 12.2363C71.7672 4.3457 61.2191 0 50 0C38.7829 0 28.2348 4.3457 20.3022 12.2363C12.3695 20.127 8 30.6172 8 41.7754C8 49.584 10.1759 57.4883 14.465 65.2715C17.8398 71.3926 22.5252 77.4512 28.3918 83.2812C38.308 93.1328 48.1007 98.8906 48.5127 99.1309L50 100L51.4892 99.1309C51.9012 98.8906 61.692 93.1328 71.6082 83.2812C77.4748 77.4512 82.1622 71.3926 85.535 65.2715C89.826 57.4883 92 49.584 92 41.7754C92 30.6172 87.6324 20.127 79.6998 12.2363Z" fill="#0F57E3"/>
<path d="M28.9632 28.63H23V25H39.8957V28.63H33.9325V39.85H28.9632V28.63Z" fill="white"/>
<path d="M28.9632 46.7799H23V43.1499H39.8957V46.7799H33.9325V57.9999H28.9632V46.7799Z" fill="white"/>
<path d="M62.7546 25H67.724V28.63L70.3743 25H76.6687L70.3743 32.267L77 39.85H70.3743L67.724 36.22V39.85H62.7546V25Z" fill="white"/>
<path d="M41.5522 25H61.0815L61.0983 28.6278H46.5065V30.2769H59.7731V34.2347H46.5216V36.2136H61.0983V39.85H41.5522V25Z" fill="white"/>
<path d="M56.7915 43.1499H61.0983L66.9074 50.0918L72.6933 43.1499H77.0001V57.9999H72.0564V50.77L66.8958 57.0099L61.7352 50.77V57.9999H56.7915V43.1499Z" fill="white"/>
<path d="M46.8529 43.1499H41.5522L45.9403 50.4348L41.5522 57.9999H46.5216L55.1351 43.1499H50.1657L48.5406 45.9518L46.8529 43.1499Z" fill="white"/>
</svg>
