<svg width="24" height="25" viewBox="0 0 24 25"  xmlns="http://www.w3.org/2000/svg">
<path fill-rule="evenodd" clip-rule="evenodd" d="M5.8627 1.62646H6.3002H17.7002H18.1377L18.4002 1.97646L21.2502 5.77646L21.4252 6.0098V6.30147V19.6015C21.4252 20.3374 21.1328 21.0433 20.6124 21.5637C20.092 22.0841 19.3862 22.3765 18.6502 22.3765H5.3502C4.61422 22.3765 3.90839 22.0841 3.38797 21.5637C2.86756 21.0433 2.5752 20.3374 2.5752 19.6015V6.30147V6.0098L2.7502 5.77646L5.6002 1.97646L5.8627 1.62646ZM6.7377 3.37646L5.2002 5.42646H18.8002L17.2627 3.37646H6.7377ZM19.6752 7.17647H4.3252V19.6015C4.3252 19.8733 4.43319 20.134 4.62541 20.3262C4.81764 20.5185 5.07835 20.6265 5.3502 20.6265H18.6502C18.922 20.6265 19.1828 20.5185 19.375 20.3262C19.5672 20.134 19.6752 19.8733 19.6752 19.6015V7.17647ZM9.0752 9.22646V10.1015C9.0752 10.8772 9.38336 11.6212 9.93191 12.1698C10.4805 12.7183 11.2244 13.0265 12.0002 13.0265C12.776 13.0265 13.5199 12.7183 14.0685 12.1698C14.617 11.6212 14.9252 10.8772 14.9252 10.1015V9.22646H16.6752V10.1015C16.6752 11.3414 16.1827 12.5305 15.3059 13.4072C14.4292 14.2839 13.2401 14.7765 12.0002 14.7765C10.7603 14.7765 9.5712 14.2839 8.69447 13.4072C7.81774 12.5305 7.3252 11.3414 7.3252 10.1015V9.22646H9.0752Z" />
</svg>
