<svg width="32" height="32" viewBox="0 0 32 32"  xmlns="http://www.w3.org/2000/svg">
<path fill-rule="evenodd" clip-rule="evenodd" d="M16 32C24.8366 32 32 24.8366 32 16C32 7.16344 24.8366 0 16 0C7.16344 0 0 7.16344 0 16C0 24.8366 7.16344 32 16 32Z" />
<path fill-rule="evenodd" clip-rule="evenodd" d="M7.19941 10.3997C6.75759 10.3997 6.39941 10.7578 6.39941 11.1997V17.1997C6.39941 19.6297 8.36936 21.5997 10.7994 21.5997C13.2295 21.5997 15.1994 19.6297 15.1994 17.1997C15.1994 17.1121 15.1969 17.0252 15.1918 16.9389C15.4442 16.8488 15.7161 16.7997 15.9994 16.7997C16.2828 16.7997 16.5546 16.8488 16.807 16.9389C16.802 17.0252 16.7994 17.1121 16.7994 17.1997C16.7994 19.6297 18.7694 21.5997 21.1994 21.5997C23.6295 21.5997 25.5994 19.6297 25.5994 17.1997V11.1997C25.5994 10.7578 25.2412 10.3997 24.7994 10.3997C24.3576 10.3997 23.9994 10.7578 23.9994 11.1997V13.8054C23.2387 13.1771 22.2631 12.7997 21.1994 12.7997C19.4181 12.7997 17.8841 13.8581 17.1919 15.3804C16.8153 15.263 16.4147 15.1997 15.9994 15.1997C15.5841 15.1997 15.1835 15.263 14.8069 15.3804C14.1147 13.8581 12.5807 12.7997 10.7994 12.7997C9.73571 12.7997 8.76017 13.1771 7.99941 13.8054V11.1997C7.99941 10.7578 7.64124 10.3997 7.19941 10.3997ZM13.5994 17.1997C13.5994 15.6533 12.3458 14.3997 10.7994 14.3997C9.25302 14.3997 7.99941 15.6533 7.99941 17.1997C7.99941 18.7461 9.25302 19.9997 10.7994 19.9997C12.3458 19.9997 13.5994 18.7461 13.5994 17.1997ZM21.1994 19.9997C19.653 19.9997 18.3994 18.7461 18.3994 17.1997C18.3994 15.6533 19.653 14.3997 21.1994 14.3997C22.7458 14.3997 23.9994 15.6533 23.9994 17.1997C23.9994 18.7461 22.7458 19.9997 21.1994 19.9997Z" fill="#FAF6F2"/>
</svg>
