<svg width="24" height="25" viewBox="0 0 24 25"  xmlns="http://www.w3.org/2000/svg">
<path fill-rule="evenodd" clip-rule="evenodd" d="M4.99865 2.59791C5.76139 2.28119 6.57914 2.11816 7.40502 2.11816C8.2309 2.11816 9.04866 2.28119 9.81139 2.59791C10.5741 2.91462 11.2668 3.37878 11.8498 3.96378L11.8527 3.9667L11.8527 3.96671L12 4.11592L12.1473 3.96671L12.1502 3.96378C12.7332 3.37878 13.4259 2.91462 14.1887 2.59791C14.9514 2.28119 15.7691 2.11816 16.595 2.11816C17.4209 2.11816 18.2387 2.28119 19.0014 2.59791C19.7639 2.91452 20.4564 3.3785 21.0393 3.96324C23.5312 6.45572 23.5969 10.5862 20.6245 13.6144L20.6188 13.6202L20.6187 13.6201L12.6187 21.6201L12 22.2389L11.3813 21.6201L3.3813 13.6201L3.37556 13.6144L3.37559 13.6144C0.40311 10.5862 0.468869 6.45573 2.96076 3.96325C3.54362 3.3785 4.23615 2.91452 4.99865 2.59791ZM7.40502 3.86816C6.80947 3.86816 6.21977 3.98573 5.66975 4.21411C5.11973 4.4425 4.6202 4.77722 4.19981 5.19907L4.19874 5.20014C2.45184 6.94704 2.2573 9.97448 4.62169 12.3857L12 19.764L19.3784 12.3856C21.7427 9.97447 21.5482 6.94703 19.8013 5.20014L19.8002 5.19907C19.3798 4.77722 18.8803 4.4425 18.3303 4.21411C17.7803 3.98573 17.1906 3.86816 16.595 3.86816C15.9995 3.86816 15.4098 3.98573 14.8598 4.21411C14.3104 4.44224 13.8113 4.77645 13.3913 5.19762C13.3908 5.1981 13.3903 5.19858 13.3898 5.19907L12.6227 5.97614L12 6.60692L11.3773 5.97614L10.6102 5.19907C10.6098 5.19858 10.6093 5.1981 10.6088 5.19762C10.1887 4.77645 9.68969 4.44224 9.14029 4.21411C8.59027 3.98573 8.00058 3.86816 7.40502 3.86816Z" />
</svg>
