<svg width="20" height="20" viewBox="0 0 20 20" xmlns="http://www.w3.org/2000/svg">
<path fill-rule="evenodd" clip-rule="evenodd" d="M6.17058 1.74414C5.47961 1.74414 4.79543 1.88054 4.15728 2.14552C3.51935 2.41041 2.93996 2.79858 2.45232 3.2878C0.366857 5.37373 0.313552 8.82896 2.79783 11.3598L9.99975 18.5617L17.1968 11.3647L17.2016 11.3597C19.6859 8.82895 19.6326 5.37375 17.5472 3.28782C17.0596 2.7986 16.4802 2.41041 15.8422 2.14552C15.2041 1.88054 14.5199 1.74414 13.8289 1.74414C13.1379 1.74414 12.4538 1.88054 11.8156 2.14552C11.1775 2.4105 10.5979 2.79884 10.1102 3.28828L10.1077 3.29079L9.99975 3.40012L9.89183 3.29079L9.88933 3.28828C9.40159 2.79884 8.82203 2.4105 8.18388 2.14552C7.54573 1.88054 6.86156 1.74414 6.17058 1.74414Z" />
</svg>
