<svg width="24" height="24" viewBox="0 0 24 24" xmlns="http://www.w3.org/2000/svg">
<path fill-rule="evenodd" clip-rule="evenodd" d="M4.99866 2.59649C5.7614 2.27978 6.57916 2.11674 7.40504 2.11674C8.23091 2.11674 9.04867 2.27978 9.81141 2.59649C10.5741 2.9132 11.2669 3.37736 11.8498 3.96236L11.8527 3.96528L12 4.11451L12.1473 3.96529L12.1502 3.96236C12.7332 3.37736 13.4259 2.9132 14.1887 2.59649C14.9514 2.27978 15.7692 2.11674 16.595 2.11674C17.4209 2.11674 18.2387 2.27978 19.0014 2.59649C19.7639 2.9131 20.4564 3.37708 21.0393 3.96182C23.5312 6.4543 23.597 10.5848 20.6245 13.613L20.6188 13.6187L12 22.2374L3.37558 13.613C0.403096 10.5848 0.468882 6.45431 2.96077 3.96183C3.54363 3.37708 4.23616 2.9131 4.99866 2.59649ZM7.40504 3.86674C6.80948 3.86674 6.21979 3.98431 5.66976 4.2127C5.11974 4.44108 4.62021 4.7758 4.19983 5.19765L4.19875 5.19872C2.45186 6.94562 2.25731 9.97306 4.6217 12.3842L12 19.7626L19.3784 12.3842C21.7428 9.97305 21.5482 6.94561 19.8013 5.19872L19.8002 5.19765C19.3799 4.7758 18.8803 4.44108 18.3303 4.2127C17.7803 3.98431 17.1906 3.86674 16.595 3.86674C15.9995 3.86674 15.4098 3.98431 14.8598 4.2127C14.3104 4.44082 13.8114 4.77503 13.3913 5.1962C13.3908 5.19668 13.3903 5.19716 13.3898 5.19765L12 6.6055L10.6102 5.19765C10.6098 5.19716 10.6093 5.19668 10.6088 5.1962C10.1887 4.77503 9.6897 4.44082 9.14031 4.2127C8.59028 3.98431 8.00059 3.86674 7.40504 3.86674Z" fill="white"/>
<path d="M5.66965 4.2127C6.21967 3.98431 6.80937 3.86674 7.40492 3.86674C8.00047 3.86674 8.59017 3.98431 9.14019 4.2127C9.68958 4.44082 10.1886 4.77503 10.6087 5.1962L10.6101 5.19765L11.9999 6.6055L13.3897 5.19765L13.3912 5.1962C13.8112 4.77503 14.3103 4.44082 14.8596 4.2127C15.4097 3.98431 15.9994 3.86674 16.5949 3.86674C17.1905 3.86674 17.7802 3.98431 18.3302 4.2127C18.8802 4.44108 19.3797 4.7758 19.8001 5.19765L19.8012 5.19872C21.5481 6.94561 21.7426 9.97305 19.3783 12.3842L11.9999 19.7626L4.62159 12.3842C2.2572 9.97306 2.45174 6.94562 4.19864 5.19872L4.19971 5.19765C4.6201 4.7758 5.11963 4.44108 5.66965 4.2127Z" />
</svg>
