<svg width="20" height="20" viewBox="0 0 20 20"  xmlns="http://www.w3.org/2000/svg">
<path fill-rule="evenodd" clip-rule="evenodd" d="M4.15727 2.14527C4.79542 1.8803 5.4796 1.7439 6.17057 1.7439C6.86155 1.7439 7.54572 1.8803 8.18387 2.14527C8.82202 2.41025 9.40158 2.7986 9.88932 3.28804L9.89182 3.29054L9.89181 3.29055L9.99974 3.39988L10.1077 3.29055L10.1102 3.28804C10.5979 2.7986 11.1775 2.41025 11.8156 2.14527C12.4538 1.8803 13.1379 1.7439 13.8289 1.7439C14.5199 1.7439 15.2041 1.8803 15.8422 2.14527C16.4802 2.41017 17.0595 2.79835 17.5472 3.28758C19.6326 5.37351 19.6859 8.82871 17.2016 11.3595L17.1968 11.3645L17.1967 11.3644L10.5301 18.0311L9.99974 18.5614L9.46941 18.0311L2.80274 11.3644L2.79782 11.3595L2.79784 11.3595C0.313564 8.8287 0.366846 5.37348 2.4523 3.28755C2.93995 2.79834 3.51934 2.41017 4.15727 2.14527ZM6.17057 3.2439C5.67702 3.2439 5.18832 3.34133 4.7325 3.5306C4.27668 3.71987 3.86271 3.99725 3.51432 4.34685L3.5134 4.34777C2.06653 5.79464 1.90288 8.30437 3.86595 10.3063L9.99974 16.4401L16.1336 10.3063C18.0966 8.30435 17.9329 5.79464 16.4861 4.34777L16.4852 4.34685C16.1368 3.99725 15.7228 3.71987 15.267 3.5306C14.8112 3.34133 14.3225 3.2439 13.8289 3.2439C13.3354 3.2439 12.8467 3.34133 12.3908 3.5306C11.9355 3.71965 11.522 3.99664 11.1738 4.34568C11.1734 4.34607 11.173 4.34646 11.1727 4.34685L10.5335 4.99434L9.99974 5.53501L9.466 4.99434L8.82566 4.34568C8.47751 3.99664 8.06395 3.71965 7.60864 3.5306C7.15282 3.34133 6.66412 3.2439 6.17057 3.2439Z" />
</svg>
