<svg width="20" height="20" viewBox="0 0 20 20"  xmlns="http://www.w3.org/2000/svg">
<path fill-rule="evenodd" clip-rule="evenodd" d="M5.83325 4.08333C4.86675 4.08333 4.08325 4.86683 4.08325 5.83333C4.08325 6.79983 4.86675 7.58333 5.83325 7.58333C6.79975 7.58333 7.58325 6.79983 7.58325 5.83333C7.58325 4.86683 6.79975 4.08333 5.83325 4.08333ZM2.58325 5.83333C2.58325 4.0384 4.03833 2.58333 5.83325 2.58333C7.37004 2.58333 8.6577 3.64998 8.99629 5.08333H9.16658H16.6666H17.4166V6.58333H16.6666H9.16658H8.99629C8.6577 8.01668 7.37004 9.08333 5.83325 9.08333C4.03833 9.08333 2.58325 7.62825 2.58325 5.83333ZM14.1666 12.4167C13.2001 12.4167 12.4166 13.2002 12.4166 14.1667C12.4166 15.1332 13.2001 15.9167 14.1666 15.9167C15.1331 15.9167 15.9166 15.1332 15.9166 14.1667C15.9166 13.2002 15.1331 12.4167 14.1666 12.4167ZM11.0035 13.4167C11.3421 11.9833 12.6298 10.9167 14.1666 10.9167C15.9615 10.9167 17.4166 12.3717 17.4166 14.1667C17.4166 15.9616 15.9615 17.4167 14.1666 17.4167C12.6298 17.4167 11.3421 16.35 11.0035 14.9167H4.16659H3.41659V13.4167H4.16659H11.0035Z" />
</svg>
