<svg width="24" height="24" viewBox="0 0 24 24" xmlns="http://www.w3.org/2000/svg">
<path fill-rule="evenodd" clip-rule="evenodd" d="M17.4298 2L17.4298 18.8638L20.7066 15.587L21.8651 16.7455L16.6106 22L11.3562 16.7463L12.5146 15.5877L15.7914 18.864L15.7914 2L17.4298 2Z" />
<path d="M6.42376 13.4688H4.99976C4.96776 13.8288 4.30376 14.7728 3.17577 14.7728V15.9728C4.09576 15.9728 4.70776 15.6168 4.86776 15.3648H4.93576V21.6608H6.42376V13.4688Z" />
<path d="M2 4.70698C2 6.24594 3.06938 7.3311 4.55704 7.3311C4.77407 7.3311 4.98715 7.29164 5.18446 7.23245L3.16408 10.192H4.66752L6.52216 7.45343C7.2798 6.32486 7.59154 5.53171 7.59943 4.71093C7.61127 3.03781 6.34854 2 4.78196 2C3.16803 2 2 3.10095 2 4.70698ZM3.40479 4.67147C3.40479 3.7994 3.97302 3.17592 4.78985 3.17592C5.60274 3.17592 6.17886 3.7994 6.17886 4.67936C6.17886 5.55144 5.60274 6.16702 4.78985 6.16702C3.97302 6.16702 3.40479 5.55144 3.40479 4.67147Z" />
</svg>
