<svg width="24" height="24" viewBox="0 0 24 24" xmlns="http://www.w3.org/2000/svg">
<path fill-rule="evenodd" clip-rule="evenodd" d="M17.4298 2L17.4298 18.8638L20.7066 15.587L21.8651 16.7455L16.6106 22L11.3562 16.7463L12.5146 15.5877L15.7914 18.864L15.7914 2L17.4298 2Z" />
<path d="M6.42376 2H4.99976C4.96776 2.36 4.30376 3.304 3.17577 3.304V4.50399C4.09576 4.50399 4.70776 4.148 4.86776 3.896H4.93576V10.192H6.42376V2Z" />
<path d="M2 16.1758C2 17.7147 3.06938 18.7999 4.55703 18.7999C4.77407 18.7999 4.98715 18.7604 5.18446 18.7012L3.16408 21.6608H4.66752L6.52216 18.9222C7.2798 17.7936 7.59154 17.0005 7.59943 16.1797C7.61127 14.5066 6.34854 13.4688 4.78196 13.4688C3.16803 13.4688 2 14.5697 2 16.1758ZM3.40479 16.1402C3.40479 15.2682 3.97302 14.6447 4.78985 14.6447C5.60274 14.6447 6.17886 15.2682 6.17886 16.1481C6.17886 17.0202 5.60274 17.6358 4.78985 17.6358C3.97302 17.6358 3.40479 17.0202 3.40479 16.1402Z"/>
</svg>