<svg width="124" height="32" viewBox="0 0 124 32" fill="none" xmlns="http://www.w3.org/2000/svg">
<path d="M54.0298 8.01H56.8398C57.0158 8.00998 57.1847 8.07919 57.3101 8.20269C57.4355 8.32618 57.5072 8.49404 57.5098 8.67V24.15C57.5098 24.3277 57.4392 24.4981 57.3136 24.6238C57.1879 24.7494 57.0175 24.82 56.8398 24.82H54.0298C53.8521 24.82 53.6817 24.7494 53.5561 24.6238C53.4304 24.4981 53.3598 24.3277 53.3598 24.15V17.82H45.4298V24.15C45.4298 24.326 45.3606 24.4949 45.2371 24.6203C45.1136 24.7456 44.9458 24.8174 44.7698 24.82H41.9898C41.8121 24.82 41.6417 24.7494 41.5161 24.6238C41.3904 24.4981 41.3198 24.3277 41.3198 24.15V8.67C41.3225 8.49404 41.3942 8.32618 41.5196 8.20269C41.6449 8.07919 41.8139 8.00998 41.9898 8.01H44.7998C44.9741 8.01258 45.1404 8.08294 45.2637 8.20616C45.3869 8.32938 45.4572 8.49576 45.4598 8.67V15.2H53.3598V8.67C53.3625 8.49404 53.4342 8.32618 53.5596 8.20269C53.6849 8.07919 53.8538 8.00998 54.0298 8.01Z" fill="#662E2C"/>
<path fill-rule="evenodd" clip-rule="evenodd" d="M73.8298 24.85C73.6892 24.8518 73.5517 24.808 73.4381 24.725C73.3246 24.6421 73.2409 24.5245 73.1998 24.39C73.0398 23.9 71.6698 20.77 71.4298 20.1H65.0998C64.8698 20.77 63.6298 23.94 63.4798 24.43C63.4354 24.5645 63.3496 24.6814 63.2346 24.7641C63.1196 24.8467 62.9814 24.8908 62.8398 24.89H60.2498C60.1444 24.8896 60.0407 24.864 59.9472 24.8153C59.8537 24.7667 59.7732 24.6963 59.7125 24.6101C59.6518 24.524 59.6127 24.4245 59.5983 24.3201C59.5839 24.2157 59.5947 24.1094 59.6298 24.01C60.2098 22.36 60.4698 21.6 60.9998 20.17C61.6198 18.49 62.2265 16.9067 62.8198 15.42C63.4198 13.93 63.9998 12.52 64.5798 11.18C65.1598 9.84 65.2098 9.58 65.7698 8.42C65.8237 8.30715 65.9089 8.21222 66.0153 8.1466C66.1217 8.08097 66.2448 8.04743 66.3698 8.04999H70.2398C70.3673 8.04762 70.4928 8.08225 70.6011 8.14969C70.7093 8.21713 70.7957 8.31449 70.8498 8.43C71.3898 9.58 71.5698 9.98 72.0898 11.18C72.6098 12.38 73.2698 13.93 73.8698 15.42C74.4698 16.91 75.0798 18.45 75.6998 20.15C76.2298 21.58 76.4998 22.34 77.0798 23.99C77.1152 24.0902 77.126 24.1974 77.1111 24.3026C77.0962 24.4078 77.0561 24.5078 76.9942 24.5942C76.9324 24.6806 76.8506 24.7508 76.7558 24.7988C76.661 24.8468 76.5561 24.8712 76.4498 24.87L73.8298 24.85ZM68.3562 11.7799C68.3891 11.8019 68.4148 11.8333 68.4298 11.87L68.6698 12.44L69.2998 14.03C69.5298 14.63 69.7898 15.35 70.0498 16.03C70.3098 16.71 70.3698 16.91 70.6498 17.71H65.8398C66.1298 16.91 66.1798 16.8 66.4598 16.07C66.7398 15.34 66.9898 14.67 67.2198 14.07L67.8298 12.48C67.9198 12.25 67.9998 12.05 68.0598 11.87C68.0749 11.8333 68.1005 11.8019 68.1335 11.7799C68.1664 11.7578 68.2052 11.746 68.2448 11.746C68.2845 11.746 68.3232 11.7578 68.3562 11.7799Z" fill="#662E2C"/>
<path d="M101.59 24.85H80.0698C79.9814 24.8475 79.8943 24.8272 79.8139 24.7904C79.7334 24.7535 79.6612 24.7009 79.6015 24.6356C79.5418 24.5703 79.4958 24.4937 79.4663 24.4102C79.4368 24.3268 79.4244 24.2383 79.4298 24.15V8.67C79.4298 8.49495 79.4994 8.32708 79.6231 8.20331C79.7469 8.07953 79.9148 8.01 80.0898 8.01H82.9098C82.9969 8.00865 83.0833 8.0248 83.164 8.05749C83.2447 8.09018 83.318 8.13874 83.3795 8.2003C83.4411 8.26186 83.4896 8.33515 83.5223 8.41584C83.555 8.49652 83.5712 8.58295 83.5698 8.67V21.56C83.5698 21.751 83.6457 21.9341 83.7807 22.0691C83.9157 22.2041 84.0989 22.28 84.2898 22.28H88.7798V8.67C88.7798 8.49495 88.8494 8.32708 88.9731 8.20331C89.0969 8.07953 89.2648 8.01 89.4398 8.01H92.2598C92.3469 8.00865 92.4333 8.0248 92.514 8.05749C92.5947 8.09018 92.668 8.13874 92.7295 8.2003C92.7911 8.26186 92.8396 8.33515 92.8723 8.41584C92.905 8.49652 92.9212 8.58295 92.9198 8.67V22.28H98.1298V8.67C98.1298 8.49495 98.1994 8.32708 98.3231 8.20331C98.4469 8.07953 98.6148 8.01 98.7898 8.01H101.61C101.697 8.00865 101.783 8.0248 101.864 8.05749C101.945 8.09018 102.018 8.13874 102.08 8.2003C102.141 8.26186 102.19 8.33515 102.222 8.41584C102.255 8.49652 102.271 8.58295 102.27 8.67V24.15C102.277 24.242 102.265 24.3346 102.233 24.4214C102.202 24.5083 102.152 24.5875 102.088 24.6537C102.024 24.7199 101.946 24.7717 101.86 24.8055C101.774 24.8394 101.682 24.8545 101.59 24.85Z" fill="#662E2C"/>
<path d="M106.16 24.15V8.68C106.16 8.5023 106.23 8.33188 106.356 8.20623C106.482 8.08058 106.652 8.01 106.83 8.01H119.83C120.008 8.01 120.178 8.08058 120.304 8.20623C120.429 8.33188 120.5 8.5023 120.5 8.68V9.88C120.5 10.0577 120.429 10.2281 120.304 10.3538C120.178 10.4794 120.008 10.55 119.83 10.55H110.73C110.642 10.55 110.555 10.5673 110.473 10.601C110.392 10.6347 110.318 10.684 110.256 10.7462C110.194 10.8085 110.144 10.8823 110.111 10.9636C110.077 11.0449 110.06 11.132 110.06 11.22V15.22H118.06C118.238 15.22 118.41 15.2902 118.537 15.4156C118.664 15.541 118.737 15.7114 118.74 15.89V17.05C118.737 17.2286 118.664 17.399 118.537 17.5244C118.41 17.6497 118.238 17.72 118.06 17.72H110.06V21.64C110.06 21.728 110.077 21.8151 110.111 21.8964C110.144 21.9777 110.194 22.0515 110.256 22.1138C110.318 22.176 110.392 22.2253 110.473 22.259C110.555 22.2927 110.642 22.31 110.73 22.31H119.8C119.978 22.31 120.148 22.3806 120.274 22.5062C120.399 22.6319 120.47 22.8023 120.47 22.98V24.15C120.47 24.3277 120.399 24.4981 120.274 24.6238C120.148 24.7494 119.978 24.82 119.8 24.82H106.8C106.627 24.8123 106.465 24.7383 106.345 24.6135C106.226 24.4886 106.16 24.3226 106.16 24.15Z" fill="#662E2C"/>
<path fill-rule="evenodd" clip-rule="evenodd" d="M18.1679 21.4549C18.1686 21.4533 18.1693 21.4516 18.17 21.45V21.46C18.1693 21.4583 18.1686 21.4566 18.1679 21.4549ZM13.7379 27.2494C13.7386 27.2496 13.7393 27.2498 13.74 27.25V27.26C13.7383 27.2562 13.7365 27.2524 13.7348 27.2486C13.7358 27.2488 13.7369 27.2491 13.7379 27.2494Z" fill="#CF643F"/>
<path fill-rule="evenodd" clip-rule="evenodd" d="M29.94 9.84V8.84C29.94 6.78 28.94 3.06 22.04 1.37C21.35 1.2 20.8 1.11 20.54 1.07H20.35C20.0013 1.03197 19.6508 1.01195 19.3 1.01C18.9922 1.00637 18.6847 1.02643 18.38 1.07H18.18C17.92 1.07 17.39 1.2 16.7 1.37C9.82 3.06 8.79 6.78 8.79 8.85V9.74C5.67 11.23 4 13.44 4 16.15C4 23.82 7.56 28.39 14.56 29.72L14.89 29.78H15.02C15.5 29.86 16.02 29.93 16.54 29.98H17.25C17.97 29.98 18.63 30.05 19.25 30.05C19.87 30.05 20.65 30.05 21.47 29.96L22.13 29.9C22.65 29.85 23.13 29.77 23.67 29.69H23.83L24.1 29.64C31.07 28.33 34.57 23.78 34.57 16.15C34.57 13.49 32.97 11.3 29.94 9.84ZM25.03 27.15C29.96 25.74 32.35 22.15 32.35 16.15C32.3202 15.3255 32.0649 14.5251 31.6117 13.8356C31.1586 13.1462 30.525 12.5943 29.78 12.24C29.36 16.33 27.97 20.69 25.03 27.15ZM27.73 9.2V8.86C27.73 6.36 25.43 4.92 23.43 4.15C23.7806 4.93992 23.9579 5.7958 23.95 6.66C23.95 10.87 23.39 14.64 20.55 21.5C20.27 22.22 19.93 23.03 19.55 23.88C19.01 25.13 18.39 26.46 17.71 27.88C18.9117 27.9697 20.1183 27.9697 21.32 27.88C21.64 27.85 21.99 27.79 22.32 27.79C22.46 27.49 22.6 27.2 22.73 26.91C26.52 18.66 27.45 14.66 27.67 11.2C27.73 10.56 27.73 9.93 27.73 9.2ZM17.02 6.68C17.02 9.71 17.2 12.7 19.37 18.45V18.46C21.55 12.71 21.73 9.72 21.73 6.66C21.7152 5.98206 21.5364 5.31779 21.2091 4.72396C20.8817 4.13014 20.4154 3.62441 19.85 3.25C19.7207 3.14266 19.558 3.08389 19.39 3.08389C19.222 3.08389 19.0593 3.14266 18.93 3.25C18.3581 3.62479 17.8856 4.13262 17.553 4.72999C17.2203 5.32737 17.0374 5.99647 17.02 6.68ZM15.87 26.54C12.19 18.54 11.29 14.54 11.08 11.11C11.08 10.5 11.02 9.88 11.02 9.11V8.82C11.02 6.32 13.29 4.88 15.36 4.09C14.9884 4.88859 14.7972 5.7592 14.8 6.64C14.8 10.8789 15.3497 14.6481 18.1679 21.4549L18.17 21.45V21.46L18.1679 21.4549C17.5084 22.9936 16.7391 24.702 15.87 26.54ZM6.22 16.15C6.22 14.56 7.14 13.23 8.96 12.15C9.36976 16.3176 10.7684 20.7248 13.7348 27.2486L13.7379 27.2494C13.7386 27.2496 13.7393 27.2498 13.74 27.25V27.26L13.7348 27.2486C8.67831 25.8475 6.22 22.2079 6.22 16.15Z" fill="#CF643F"/>
</svg>
