<svg width="16" height="18" viewBox="0 0 16 18" fill="none" xmlns="http://www.w3.org/2000/svg">
<path d="M14.5455 7.54545C14.5455 12.6364 8.00004 17 8.00004 17C8.00004 17 1.45459 12.6364 1.45459 7.54545C1.45459 5.80949 2.1442 4.14463 3.37171 2.91712C4.59922 1.68961 6.26408 1 8.00004 1C9.73601 1 11.4009 1.68961 12.6284 2.91712C13.8559 4.14463 14.5455 5.80949 14.5455 7.54545Z" stroke="#662E2C" stroke-width="1.5" stroke-linecap="square"/>
<path d="M8.00004 9.72727C9.20503 9.72727 10.1819 8.75044 10.1819 7.54545C10.1819 6.34047 9.20503 5.36364 8.00004 5.36364C6.79506 5.36364 5.81823 6.34047 5.81823 7.54545C5.81823 8.75044 6.79506 9.72727 8.00004 9.72727Z" stroke="#662E2C" stroke-width="1.5" stroke-linecap="square"/>
</svg>
