<svg width="20" height="20" viewBox="0 0 20 20" xmlns="http://www.w3.org/2000/svg">
<path d="M17.1722 13.1549L17.7972 13.1555V13.1549H17.1722ZM17.1722 6.77973H17.7972V6.77909L17.1722 6.77973ZM16.3753 5.4011L16.6878 4.85983L16.6854 4.85845L16.3753 5.4011ZM10.7971 2.21353L10.4846 2.7548L10.487 2.75618L10.7971 2.21353ZM9.20328 2.21353L9.51337 2.75618L9.51578 2.75479L9.20328 2.21353ZM3.62502 5.4011L3.31493 4.85845L3.31252 4.85984L3.62502 5.4011ZM2.82812 6.77973L2.20312 6.77909V6.77973H2.82812ZM2.82812 13.1549H2.20312L2.20313 13.1555L2.82812 13.1549ZM3.62502 14.5335L3.31252 15.0748L3.31493 15.0762L3.62502 14.5335ZM9.20328 17.7211L9.51578 17.1798L9.51336 17.1784L9.20328 17.7211ZM10.7971 17.7211L10.487 17.1784L10.4846 17.1798L10.7971 17.7211ZM16.3753 14.5335L16.6854 15.0762L16.6878 15.0748L16.3753 14.5335ZM13.4792 7.97952L13.7902 8.52165L13.4792 7.97952ZM6.41415 3.80732L6.10406 3.26466L6.41415 3.80732ZM17.7972 13.1549V6.77973H16.5472V13.1549H17.7972ZM17.7972 6.77909C17.7968 6.39 17.6941 6.00785 17.4994 5.67098L16.4172 6.29654C16.5022 6.44362 16.547 6.61048 16.5472 6.78037L17.7972 6.77909ZM17.4994 5.67098C17.3047 5.33412 17.0248 5.05438 16.6878 4.85984L16.0628 5.94237C16.21 6.02731 16.3322 6.14946 16.4172 6.29654L17.4994 5.67098ZM16.6854 4.85845L11.1072 1.67088L10.487 2.75618L16.0652 5.94376L16.6854 4.85845ZM11.1096 1.67226C10.7723 1.47752 10.3897 1.375 10.0002 1.375V2.625C10.1702 2.625 10.3373 2.66976 10.4846 2.75479L11.1096 1.67226ZM10.0002 1.375C9.61069 1.375 9.22808 1.47752 8.89078 1.67226L9.51578 2.75479C9.66305 2.66976 9.83011 2.625 10.0002 2.625V1.375ZM3.31252 4.85984C2.97555 5.05438 2.69567 5.33412 2.50095 5.67098L3.58317 6.29654C3.66819 6.14946 3.79039 6.02731 3.93752 5.94237L3.31252 4.85984ZM2.50095 5.67098C2.30624 6.00785 2.20352 6.39 2.20313 6.77909L3.45312 6.78037C3.4533 6.61048 3.49815 6.44363 3.58317 6.29654L2.50095 5.67098ZM2.20312 6.77973V13.1549H3.45312V6.77973H2.20312ZM2.20313 13.1555C2.20352 13.5446 2.30624 13.9268 2.50095 14.2636L3.58317 13.6381C3.49815 13.491 3.4533 13.3241 3.45312 13.1542L2.20313 13.1555ZM2.50095 14.2636C2.69567 14.6005 2.97555 14.8802 3.31252 15.0748L3.93752 13.9922C3.79039 13.9073 3.66819 13.7852 3.58317 13.6381L2.50095 14.2636ZM3.31493 15.0762L8.89319 18.2637L9.51336 17.1784L3.93511 13.9909L3.31493 15.0762ZM8.89078 18.2624C9.22807 18.4571 9.61069 18.5596 10.0002 18.5596V17.3096C9.83012 17.3096 9.66305 17.2649 9.51578 17.1798L8.89078 18.2624ZM10.0002 18.5596C10.3897 18.5596 10.7723 18.4571 11.1096 18.2624L10.4846 17.1798C10.3373 17.2649 10.1702 17.3096 10.0002 17.3096V18.5596ZM11.1072 18.2637L16.6854 15.0762L16.0652 13.9909L10.487 17.1784L11.1072 18.2637ZM16.6878 15.0748C17.0248 14.8802 17.3047 14.6005 17.4994 14.2636L16.4172 13.6381C16.3322 13.7852 16.21 13.9073 16.0628 13.9922L16.6878 15.0748ZM17.4994 14.2636C17.6941 13.9268 17.7968 13.5446 17.7972 13.1555L16.5472 13.1542C16.547 13.3241 16.5022 13.491 16.4172 13.6381L17.4994 14.2636ZM9.37517 9.97528V17.9346H10.6252V9.97528H9.37517ZM10.3112 9.43314L3.35305 5.44163L2.73107 6.5259L9.68918 10.5174L10.3112 9.43314ZM10.3112 10.5174L13.7902 8.52165L13.1682 7.43739L9.68918 9.43314L10.3112 10.5174ZM13.7902 8.52165L17.2693 6.5259L16.6473 5.44163L13.1682 7.43739L13.7902 8.52165ZM8.89319 1.67088L6.10406 3.26466L6.72424 4.34997L9.51336 2.75618L8.89319 1.67088ZM6.10406 3.26466L3.31493 4.85845L3.93511 5.94376L6.72424 4.34997L6.10406 3.26466ZM13.797 7.44135L6.73196 3.26915L6.09634 4.34548L13.1614 8.51769L13.797 7.44135Z" />
</svg>
