<svg width="24" height="24" viewBox="0 0 24 24"  xmlns="http://www.w3.org/2000/svg">
<path fill-rule="evenodd" clip-rule="evenodd" d="M5.10368 3.875C4.22844 3.875 3.69084 4.65649 3.93798 5.38896C4.86572 8.1384 6.59228 12.2666 9.16282 14.8371L9.16283 14.8371C11.7334 17.4077 15.8616 19.1343 18.6111 20.062L18.6111 20.062C19.3434 20.3091 20.125 19.7716 20.125 18.8963V16.1034C20.125 16.0214 20.0806 15.9459 20.0088 15.9059L17.5761 14.5534C17.5109 14.5172 17.432 14.5155 17.3653 14.5488L17.3652 14.5488L14.7709 15.846L14.5058 15.9785L14.2147 15.9227L14.3796 15.0634C14.2147 15.9227 14.2145 15.9226 14.2142 15.9226L14.2136 15.9225L14.2122 15.9222L14.209 15.9216L14.2005 15.9199L14.1751 15.9146C14.1545 15.9102 14.1268 15.9041 14.0924 15.896C14.0238 15.8797 13.9286 15.8556 13.8113 15.8217C13.5772 15.7542 13.2531 15.6473 12.8766 15.4869C12.127 15.1675 11.1479 14.6262 10.2609 13.7391L10.2608 13.7391C9.3739 12.8522 8.83112 11.8717 8.51021 11.1211C8.34901 10.744 8.2414 10.4194 8.17322 10.1849C8.13908 10.0674 8.11466 9.97202 8.09825 9.90331C8.09004 9.86894 8.08383 9.84118 8.07939 9.82063L8.07404 9.79524L8.07232 9.78671L8.07168 9.78351L8.07142 9.78218L8.0713 9.78159C8.07125 9.78131 8.0712 9.78103 8.9301 9.61397L8.0712 9.78103L8.01437 9.48888L8.14747 9.22266L9.44484 6.62788L9.44487 6.62782C9.47819 6.56119 9.47651 6.48235 9.44031 6.41713M9.4403 6.41711L8.09365 3.99133C8.09364 3.99131 8.09363 3.9913 8.09363 3.99128C8.05373 3.91947 7.97809 3.875 7.89608 3.875H5.10368M9.85865 9.71342C9.91056 9.88976 9.99397 10.1399 10.1193 10.4332C10.3798 11.0424 10.8117 11.8151 11.4983 12.5017C12.1847 13.1881 12.9556 13.6183 13.5627 13.877C13.8546 14.0014 14.1036 14.084 14.2791 14.1353L16.5825 12.9836C16.5825 12.9836 16.5826 12.9836 16.5826 12.9836C17.1662 12.6918 17.8562 12.7069 18.4264 13.0239L18.4264 13.0239L20.8592 14.3764L20.8592 14.3765C21.4862 14.7251 21.875 15.386 21.875 16.1034V18.8963C21.875 20.8655 20.0143 22.3825 18.0516 21.7201C15.2655 20.7801 10.801 18.9503 7.92538 16.0746C5.04973 13.1989 3.21991 8.73449 2.27983 5.94845L2.27983 5.94844C1.61756 3.98565 3.13444 2.125 5.10368 2.125H7.89608C8.6139 2.125 9.27522 2.5143 9.62364 3.14184L9.62367 3.14189L10.9704 5.56774L10.9704 5.56775C11.2868 6.13778 11.3017 6.82729 11.0101 7.41055L9.85865 9.71342Z" />
</svg>
