<svg width="20" height="20" viewBox="0 0 20 20" fill="none" xmlns="http://www.w3.org/2000/svg">
<path d="M6.80809 3C7.11914 3 7.40574 3.1687 7.55675 3.44068L8.60417 5.32745C8.74131 5.57449 8.74777 5.8733 8.62138 6.12603L7.61232 8.1442C7.61232 8.1442 7.90475 9.6476 9.12857 10.8714C10.3524 12.0952 11.8508 12.3826 11.8508 12.3826L13.8686 11.3737C14.1215 11.2473 14.4205 11.2538 14.6677 11.3912L16.5598 12.4432C16.8315 12.5943 17 12.8807 17 13.1916V15.3638C17 16.47 15.9725 17.269 14.9244 16.9153C12.7716 16.1889 9.43007 14.8059 7.3121 12.6879C5.19414 10.5699 3.8111 7.22834 3.08473 5.07565C2.73107 4.0275 3.53003 3 4.63622 3H6.80809Z" />
</svg>
