<svg width="20" height="20" viewBox="0 0 20 20" fill="none" xmlns="http://www.w3.org/2000/svg">
<path d="M16.5455 8.54545C16.5455 13.6364 10 18 10 18C10 18 3.45459 13.6364 3.45459 8.54545C3.45459 6.80949 4.1442 5.14463 5.37171 3.91712C6.59922 2.68961 8.26408 2 10 2C11.736 2 13.4009 2.68961 14.6284 3.91712C15.8559 5.14463 16.5455 6.80949 16.5455 8.54545Z" />
<path d="M10 10.7273C11.205 10.7273 12.1819 9.75044 12.1819 8.54545C12.1819 7.34047 11.205 6.36364 10 6.36364C8.79506 6.36364 7.81823 7.34047 7.81823 8.54545C7.81823 9.75044 8.79506 10.7273 10 10.7273Z" />
</svg>
