<svg width="20" height="20" viewBox="0 0 20 20" xmlns="http://www.w3.org/2000/svg">
<path d="M3.875 2.5V1.875H2.625V2.5H3.875ZM3.25 7H2.625V7.625H3.25V7ZM7.75 7.625H8.375V6.375H7.75V7.625ZM16.125 10.0006L16.1256 10.6256L17.3756 10.6244L17.375 9.99943L16.125 10.0006ZM5.5 4.975L5.08333 4.50915L5.0819 4.51044L5.5 4.975ZM16.125 17.5V18.125H17.375V17.5H16.125ZM16.75 13H17.375V12.375H16.75V13ZM12.25 12.375H11.625V13.625H12.25V12.375ZM3.875 9.99943L3.87443 9.37443L2.62443 9.37557L2.625 10.0006L3.875 9.99943ZM14.5 15.025L14.9167 15.4909L14.9181 15.4896L14.5 15.025ZM2.625 2.5V7H3.875V2.5H2.625ZM3.25 7.625H7.75V6.375H3.25V7.625ZM17.375 9.99943C17.3737 8.57631 16.9607 7.18397 16.1858 5.99033L15.1373 6.67098C15.7809 7.6623 16.1239 8.81866 16.125 10.0006L17.375 9.99943ZM16.1858 5.99033C15.4109 4.79669 14.3071 3.85275 13.0078 3.27236L12.498 4.41368C13.5771 4.8957 14.4938 5.67965 15.1373 6.67098L16.1858 5.99033ZM13.0078 3.27236C11.7084 2.69196 10.2688 2.49991 8.86272 2.71937L9.05548 3.95441C10.2233 3.77216 11.4188 3.93166 12.498 4.41368L13.0078 3.27236ZM8.86272 2.71937C7.45663 2.93882 6.14406 3.56041 5.08333 4.50915L5.91667 5.44085C6.79761 4.65291 7.88771 4.13667 9.05548 3.95441L8.86272 2.71937ZM5.0819 4.51044L2.8319 6.53544L3.6681 7.46456L5.9181 5.43956L5.0819 4.51044ZM17.375 17.5V13H16.125V17.5H17.375ZM16.75 12.375H12.25V13.625H16.75V12.375ZM2.625 10.0006C2.6263 11.4237 3.03931 12.816 3.81422 14.0097L4.86266 13.329C4.21909 12.3377 3.87608 11.1813 3.875 9.99943L2.625 10.0006ZM3.81422 14.0097C4.58914 15.2033 5.69285 16.1473 6.99224 16.7276L7.50203 15.5863C6.42287 15.1043 5.50623 14.3203 4.86266 13.329L3.81422 14.0097ZM6.99224 16.7276C8.29162 17.308 9.73118 17.5001 11.1373 17.2806L10.9445 16.0456C9.77674 16.2278 8.58118 16.0683 7.50203 15.5863L6.99224 16.7276ZM11.1373 17.2806C12.5434 17.0612 13.8559 16.4396 14.9167 15.4908L14.0833 14.5592C13.2024 15.3471 12.1123 15.8633 10.9445 16.0456L11.1373 17.2806ZM14.9181 15.4896L17.1681 13.4646L16.3319 12.5354L14.0819 14.5604L14.9181 15.4896Z"/>
</svg>
