<svg width="24" height="25" viewBox="0 0 24 25"  xmlns="http://www.w3.org/2000/svg">
<path fill-rule="evenodd" clip-rule="evenodd" d="M11 3.87646C7.06497 3.87646 3.875 7.06644 3.875 11.0015C3.875 14.9365 7.06497 18.1265 11 18.1265C12.8334 18.1265 14.5051 17.434 15.7677 16.2963L16.2948 15.7692C17.4325 14.5066 18.125 12.8349 18.125 11.0015C18.125 7.06644 14.935 3.87646 11 3.87646ZM17.8639 16.6279C19.1207 15.0966 19.875 13.1371 19.875 11.0015C19.875 6.09994 15.9015 2.12646 11 2.12646C6.09847 2.12646 2.125 6.09994 2.125 11.0015C2.125 15.903 6.09847 19.8765 11 19.8765C13.1356 19.8765 15.0951 19.1221 16.6265 17.8654L20.3813 21.6202L21 22.2389L22.2374 21.0015L21.6187 20.3827L17.8639 16.6279Z" />
</svg>
