<svg width="20" height="20" viewBox="0 0 20 20"  xmlns="http://www.w3.org/2000/svg">
<path d="M16.2848 3.595L16.0872 4.18793L16.0873 4.18796L16.2848 3.595ZM12.9998 2.5L13.1975 1.90707L12.3748 1.63286V2.5L12.9998 2.5ZM9.99985 5.5V6.125V5.5ZM6.99985 2.5L7.62485 2.5V1.63286L6.80221 1.90707L6.99985 2.5ZM3.71485 3.595L3.9124 4.18796L3.91249 4.18793L3.71485 3.595ZM2.70985 5.2675L3.3263 5.16446L3.32615 5.16358L2.70985 5.2675ZM3.14485 7.87L3.7618 7.77L3.7613 7.76696L3.14485 7.87ZM3.88735 8.5V7.875L3.88555 7.875L3.88735 8.5ZM5.49985 8.5H6.12485V7.875H5.49985V8.5ZM14.4998 8.5V7.875H13.8748V8.5H14.4998ZM16.1123 8.5L16.1141 7.875H16.1123V8.5ZM16.8548 7.87L16.2384 7.76696L16.2379 7.77L16.8548 7.87ZM17.2898 5.2675L16.6735 5.16358L16.6734 5.16446L17.2898 5.2675ZM16.4825 3.00207L13.1975 1.90707L12.8022 3.09293L16.0872 4.18793L16.4825 3.00207ZM12.3748 2.5C12.3748 3.12989 12.1246 3.73398 11.6792 4.17938L12.5631 5.06326C13.2429 4.38344 13.6248 3.46141 13.6248 2.5L12.3748 2.5ZM11.6792 4.17938C11.2338 4.62478 10.6297 4.875 9.99985 4.875V6.125C10.9613 6.125 11.8833 5.74308 12.5631 5.06326L11.6792 4.17938ZM9.99985 4.875C9.36996 4.875 8.76587 4.62478 8.32047 4.17938L7.43658 5.06326C8.1164 5.74308 9.03844 6.125 9.99985 6.125V4.875ZM8.32047 4.17938C7.87507 3.73398 7.62485 3.12989 7.62485 2.5L6.37485 2.5C6.37485 3.46141 6.75677 4.38344 7.43658 5.06326L8.32047 4.17938ZM6.80221 1.90707L3.5172 3.00207L3.91249 4.18793L7.19749 3.09293L6.80221 1.90707ZM3.5173 3.00204C3.03639 3.16226 2.6286 3.48911 2.36752 3.92359L3.43896 4.56742C3.54646 4.38851 3.71438 4.25393 3.9124 4.18796L3.5173 3.00204ZM2.36752 3.92359C2.10644 4.35808 2.00927 4.87158 2.09355 5.37142L3.32615 5.16358C3.29144 4.95777 3.33145 4.74633 3.43896 4.56742L2.36752 3.92359ZM2.0934 5.37054L2.5284 7.97304L3.7613 7.76696L3.3263 5.16446L2.0934 5.37054ZM2.5279 7.97C2.58025 8.293 2.74608 8.58675 2.99559 8.79845L3.80431 7.84532C3.78163 7.82607 3.76656 7.79937 3.7618 7.77L2.5279 7.97ZM2.99559 8.79845C3.2451 9.01016 3.56193 9.12594 3.88915 9.125L3.88555 7.875C3.8558 7.87509 3.827 7.86456 3.80431 7.84532L2.99559 8.79845ZM3.88735 9.125H5.49985V7.875H3.88735V9.125ZM4.87485 8.5V16H6.12485V8.5H4.87485ZM4.87485 16C4.87485 17.1702 5.82967 18.125 6.99985 18.125V16.875C6.52003 16.875 6.12485 16.4798 6.12485 16H4.87485ZM6.99985 18.125H12.9998V16.875H6.99985V18.125ZM12.9998 18.125C13.5634 18.125 14.1039 17.9011 14.5024 17.5026L13.6186 16.6187C13.4545 16.7828 13.2319 16.875 12.9998 16.875V18.125ZM14.5024 17.5026C14.901 17.1041 15.1248 16.5636 15.1248 16H13.8748C13.8748 16.2321 13.7827 16.4546 13.6186 16.6187L14.5024 17.5026ZM15.1248 16V8.5H13.8748V16H15.1248ZM14.4998 9.125H16.1123V7.875H14.4998V9.125ZM16.1105 9.125C16.4378 9.12594 16.7546 9.01016 17.0041 8.79845L16.1954 7.84532C16.1727 7.86456 16.1439 7.87509 16.1141 7.875L16.1105 9.125ZM17.0041 8.79845C17.2536 8.58675 17.4194 8.293 17.4718 7.97L16.2379 7.77C16.2331 7.79937 16.2181 7.82607 16.1954 7.84532L17.0041 8.79845ZM17.4713 7.97304L17.9063 5.37054L16.6734 5.16446L16.2384 7.76696L17.4713 7.97304ZM17.9061 5.37142C17.9904 4.87158 17.8933 4.35808 17.6322 3.92359L16.5607 4.56742C16.6682 4.74632 16.7083 4.95776 16.6735 5.16358L17.9061 5.37142ZM17.6322 3.92359C17.3711 3.48911 16.9633 3.16226 16.4824 3.00204L16.0873 4.18796C16.2853 4.25393 16.4532 4.38852 16.5607 4.56742L17.6322 3.92359Z" />
</svg>
