<svg width="20" height="20" viewBox="0 0 20 20"  xmlns="http://www.w3.org/2000/svg">
<path fill-rule="evenodd" clip-rule="evenodd" d="M8.49994 2.41663C8.30103 2.41663 8.11026 2.49564 7.96961 2.6363C7.82896 2.77695 7.74994 2.96771 7.74994 3.16663V3.91663H12.2499V3.16663C12.2499 2.96771 12.1709 2.77695 12.0303 2.6363C11.8896 2.49564 11.6989 2.41663 11.4999 2.41663H8.49994ZM13.7499 3.91663V3.16663C13.7499 2.56989 13.5129 1.99759 13.0909 1.57564C12.669 1.15368 12.0967 0.916626 11.4999 0.916626H8.49994C7.9032 0.916626 7.33091 1.15368 6.90895 1.57564C6.48699 1.99759 6.24994 2.56989 6.24994 3.16663V3.91663H4.74994H3.24994H2.49994V5.41663H3.24994H3.99994V15.1666C3.99994 15.7634 4.23699 16.3357 4.65895 16.7576C5.08091 17.1796 5.6532 17.4166 6.24994 17.4166H13.7499C14.3467 17.4166 14.919 17.1796 15.3409 16.7576C15.7629 16.3357 15.9999 15.7634 15.9999 15.1666V5.41663H16.7499H17.4999V3.91663H16.7499H15.9999H15.2499H13.7499ZM13.7499 5.41663H12.2499H7.74994H6.24994H5.49994V15.1666C5.49994 15.3655 5.57896 15.5563 5.71961 15.697C5.86026 15.8376 6.05103 15.9166 6.24994 15.9166H13.7499C13.9489 15.9166 14.1396 15.8376 14.2803 15.697C14.4209 15.5563 14.4999 15.3655 14.4999 15.1666V5.41663H13.7499ZM9.24994 7.66663V8.41663V12.9166V13.6666H7.74994V12.9166V8.41663V7.66663H9.24994ZM12.2499 7.66663V8.41663V12.9166V13.6666H10.7499V12.9166V8.41663V7.66663H12.2499Z" />
</svg>
