<svg width="20" height="20" viewBox="0 0 20 20"  xmlns="http://www.w3.org/2000/svg">
<path d="M11.6665 4.1665H12.2915V3.5415H11.6665V4.1665ZM1.6665 4.1665V3.5415H1.0415V4.1665H1.6665ZM1.6665 14.1665H1.0415V14.7915H1.6665V14.1665ZM16.6665 13.5415H16.0415V14.7915H16.6665V13.5415ZM18.3332 14.1665V14.7915H18.9582V14.1665H18.3332ZM18.3332 11.3832L17.7082 11.3827V11.3832H18.3332ZM17.3582 9.02484L17.8004 8.58314L17.8001 8.5829L17.3582 9.02484ZM15.8332 7.49984L16.2751 7.0579L16.0921 6.87484H15.8332V7.49984ZM11.6665 7.49984V6.87484H11.0415V7.49984H11.6665ZM12.4998 14.7915H13.1248V13.5415H12.4998V14.7915ZM12.2915 14.1665V4.1665H11.0415V14.1665H12.2915ZM11.6665 3.5415H1.6665V4.7915H11.6665V3.5415ZM1.0415 4.1665V14.1665H2.2915V4.1665H1.0415ZM16.6665 14.7915H18.3332V13.5415H16.6665V14.7915ZM18.9582 14.1665V11.3832H17.7082V14.1665H18.9582ZM18.9582 11.3837C18.9586 10.8637 18.8565 10.3487 18.6579 9.86822L17.5027 10.3458C17.6386 10.6746 17.7085 11.0269 17.7082 11.3827L18.9582 11.3837ZM18.6579 9.86822C18.4592 9.38769 18.1678 8.95102 17.8004 8.58314L16.916 9.46653C17.1674 9.71824 17.3668 10.017 17.5027 10.3458L18.6579 9.86822ZM17.8001 8.5829L16.2751 7.0579L15.3912 7.94178L16.9162 9.46678L17.8001 8.5829ZM15.8332 6.87484H11.6665V8.12484H15.8332V6.87484ZM11.0415 7.49984V14.1665H12.2915V7.49984H11.0415ZM11.6665 14.7915H12.4998V13.5415H11.6665V14.7915ZM7.70817 14.5832C7.70817 15.3886 7.05525 16.0415 6.24984 16.0415V17.2915C7.74561 17.2915 8.95817 16.0789 8.95817 14.5832H7.70817ZM6.24984 16.0415C5.44442 16.0415 4.7915 15.3886 4.7915 14.5832H3.5415C3.5415 16.0789 4.75407 17.2915 6.24984 17.2915V16.0415ZM16.0415 14.5832C16.0415 15.3886 15.3886 16.0415 14.5832 16.0415V17.2915C16.0789 17.2915 17.2915 16.0789 17.2915 14.5832H16.0415ZM14.5832 16.0415C13.7778 16.0415 13.1248 15.3886 13.1248 14.5832H11.8748C11.8748 16.0789 13.0874 17.2915 14.5832 17.2915V16.0415ZM13.1248 14.5832C13.1248 13.7778 13.7778 13.1248 14.5832 13.1248V11.8748C13.0874 11.8748 11.8748 13.0874 11.8748 14.5832H13.1248ZM14.5832 13.1248C15.3886 13.1248 16.0415 13.7778 16.0415 14.5832H17.2915C17.2915 13.0874 16.0789 11.8748 14.5832 11.8748V13.1248ZM1.6665 14.7915H4.20818V13.5415H1.6665V14.7915ZM4.7915 14.5832C4.7915 14.4825 4.80162 14.3848 4.82069 14.2908L3.59567 14.0422C3.56008 14.2175 3.5415 14.3985 3.5415 14.5832H4.7915ZM4.20818 14.7915H8.2915V13.5415H4.20818V14.7915ZM8.2915 14.7915H11.6665V13.5415H8.2915V14.7915ZM7.67899 14.2908C7.69806 14.3848 7.70817 14.4825 7.70817 14.5832H8.95817C8.95817 14.3985 8.93959 14.2175 8.90401 14.0422L7.67899 14.2908Z" />
</svg>
