<svg width="24" height="25" viewBox="0 0 24 25" xmlns="http://www.w3.org/2000/svg">
<path fill-rule="evenodd" clip-rule="evenodd" d="M12.0002 2.87646C10.0289 2.87646 8.43077 4.47456 8.43077 6.44591C8.43077 8.41726 10.0289 10.0154 12.0002 10.0154C13.9716 10.0154 15.5697 8.41726 15.5697 6.44591C15.5697 4.47456 13.9716 2.87646 12.0002 2.87646ZM6.68077 6.44591C6.68077 3.50806 9.06237 1.12646 12.0002 1.12646C14.9381 1.12646 17.3197 3.50806 17.3197 6.44591C17.3197 9.38376 14.9381 11.7654 12.0002 11.7654C9.06237 11.7654 6.68077 9.38376 6.68077 6.44591ZM3.79436 16.0178C4.79195 15.0202 6.14497 14.4598 7.55577 14.4598H16.4447C17.8555 14.4598 19.2085 15.0202 20.2061 16.0178C21.2037 17.0154 21.7641 18.3684 21.7641 19.7792V22.0015V22.8765H20.0141V22.0015V19.7792C20.0141 18.8326 19.638 17.9247 18.9686 17.2553C18.2992 16.5859 17.3913 16.2098 16.4447 16.2098H7.55577C6.6091 16.2098 5.7012 16.5859 5.03179 17.2553C4.36239 17.9247 3.98633 18.8326 3.98633 19.7792V22.0015V22.8765H2.23633V22.0015V19.7792C2.23633 18.3684 2.79677 17.0154 3.79436 16.0178Z" />
</svg>
