<svg width="22" height="20" viewBox="0 0 22 20" xmlns="http://www.w3.org/2000/svg">
<path fill-rule="evenodd" clip-rule="evenodd" d="M2.6876 10C2.78171 10.1642 2.91125 10.381 3.07516 10.6348C3.46129 11.2327 4.03324 12.028 4.77614 12.8204C6.27563 14.4199 8.38278 15.9167 10.9998 15.9167C13.6169 15.9167 15.724 14.4199 17.2235 12.8204C17.9664 12.028 18.5383 11.2327 18.9245 10.6348C19.0884 10.381 19.2179 10.1642 19.312 10C19.2179 9.83592 19.0884 9.61907 18.9245 9.36527C18.5383 8.76739 17.9664 7.97209 17.2235 7.17966C15.724 5.58021 13.6169 4.08337 10.9998 4.08337C8.38278 4.08337 6.27563 5.58021 4.77614 7.17966C4.03324 7.97209 3.46129 8.76739 3.07516 9.36527C2.91125 9.61907 2.78171 9.83592 2.6876 10ZM20.1665 10C20.8373 9.66463 20.8372 9.66437 20.837 9.66409L20.8367 9.66341L20.8358 9.66157L20.833 9.65609L20.8238 9.638C20.816 9.62282 20.8049 9.60148 20.7905 9.57438C20.7619 9.52019 20.7201 9.44293 20.6655 9.34589C20.5564 9.1519 20.3956 8.87826 20.1845 8.55148C19.7634 7.89936 19.1374 7.02799 18.3178 6.15375C16.6923 4.41987 14.2161 2.58337 10.9998 2.58337C7.78352 2.58337 5.30735 4.41987 3.68183 6.15375C2.86224 7.02799 2.23627 7.89936 1.8151 8.55148C1.60406 8.87826 1.44321 9.1519 1.3341 9.34589C1.27951 9.44293 1.23778 9.52019 1.20911 9.57438C1.19477 9.60148 1.18368 9.62282 1.17588 9.638L1.16664 9.65609L1.16387 9.66157L1.16295 9.66341L1.1626 9.66409C1.16246 9.66437 1.16233 9.66463 1.83315 10L1.16233 9.66463L0.994629 10L1.16233 10.3355L1.83315 10C1.16233 10.3355 1.16246 10.3357 1.1626 10.336L1.16295 10.3367L1.16387 10.3385L1.16664 10.344L1.17588 10.3621C1.18368 10.3773 1.19477 10.3986 1.20911 10.4257C1.23778 10.4799 1.27951 10.5571 1.3341 10.6542C1.44321 10.8482 1.60406 11.1218 1.8151 11.4486C2.23627 12.1007 2.86224 12.9721 3.68183 13.8463C5.30735 15.5802 7.78352 17.4167 10.9998 17.4167C14.2161 17.4167 16.6923 15.5802 18.3178 13.8463C19.1374 12.9721 19.7634 12.1007 20.1845 11.4486C20.3956 11.1218 20.5564 10.8482 20.6655 10.6542C20.7201 10.5571 20.7619 10.4799 20.7905 10.4257C20.8049 10.3986 20.816 10.3773 20.8238 10.3621L20.833 10.344L20.8358 10.3385L20.8367 10.3367L20.837 10.336C20.8372 10.3357 20.8373 10.3355 20.1665 10ZM20.1665 10L20.8373 10.3355L21.005 10L20.8373 9.66463L20.1665 10ZM10.9998 8.25004C10.0333 8.25004 9.24982 9.03354 9.24982 10C9.24982 10.9665 10.0333 11.75 10.9998 11.75C11.9663 11.75 12.7498 10.9665 12.7498 10C12.7498 9.03354 11.9663 8.25004 10.9998 8.25004ZM7.74982 10C7.74982 8.20511 9.2049 6.75004 10.9998 6.75004C12.7947 6.75004 14.2498 8.20511 14.2498 10C14.2498 11.795 12.7947 13.25 10.9998 13.25C9.2049 13.25 7.74982 11.795 7.74982 10Z" />
</svg>
