<svg width="32" height="32" viewBox="0 0 32 32" xmlns="http://www.w3.org/2000/svg">
<path fill-rule="evenodd" clip-rule="evenodd" d="M26.1774 11.023C26.3257 10.5286 26.1774 10.1652 25.4715 10.1652H23.1377C22.5442 10.1652 22.2708 10.4791 22.1224 10.8253C22.1224 10.8253 20.9355 13.7182 19.2541 15.5973C18.7101 16.1412 18.4629 16.3141 18.1662 16.3141C18.0178 16.3141 17.8031 16.1412 17.8031 15.6468V11.023C17.8031 10.4296 17.6309 10.1652 17.1363 10.1652H13.4687C13.098 10.1652 12.8749 10.4406 12.8749 10.7016C12.8749 11.2643 13.7155 11.3939 13.8021 12.9763V16.4133C13.8021 17.1668 13.6661 17.3035 13.3694 17.3035C12.5782 17.3035 10.6537 14.3975 9.51214 11.0725C9.28842 10.4262 9.06403 10.1652 8.46756 10.1652H6.13368C5.46686 10.1652 5.3335 10.4791 5.3335 10.8253C5.3335 11.4435 6.12485 14.5095 9.01769 18.5645C10.9465 21.3334 13.6634 22.8348 16.136 22.8348C17.6197 22.8348 17.8031 22.5014 17.8031 21.9271V19.8341C17.8031 19.1673 17.9436 19.0342 18.4132 19.0342C18.7596 19.0342 19.3529 19.2073 20.7378 20.5424C22.3201 22.1246 22.5809 22.8348 23.4711 22.8348H25.8049C26.4718 22.8348 26.8052 22.5014 26.6128 21.8434C26.4024 21.1876 25.6469 20.2363 24.6443 19.1084C24.1004 18.4654 23.2844 17.7731 23.0373 17.427C22.691 16.9819 22.7899 16.7842 23.0373 16.3888C23.0373 16.3888 25.8806 12.3832 26.1774 11.0232V11.023Z" />
</svg>
