<svg width="16" height="14" viewBox="0 0 16 14" fill="none" xmlns="http://www.w3.org/2000/svg">
<path d="M13.4444 6.99996V3.88885H2.55556C2.143 3.88885 1.74733 3.72496 1.45561 3.43324C1.16389 3.14152 1 2.74585 1 2.3333M1 2.3333C1 1.47774 1.7 0.77774 2.55556 0.77774H11.8889V3.88885M1 2.3333V11.6666C1 12.5222 1.7 13.2222 2.55556 13.2222H13.4444V10.1111M11.8889 6.99996C11.4763 6.99996 11.0807 7.16385 10.7889 7.45557C10.4972 7.7473 10.3333 8.14296 10.3333 8.55552C10.3333 9.41107 11.0333 10.1111 11.8889 10.1111H15V6.99996H11.8889Z" stroke="#662E2C" stroke-width="1.5" stroke-linecap="square"/>
</svg>
